<?xml version="1.0" encoding="UTF-8" standalone="no"?>
<!-- Created with Inkscape (http://www.inkscape.org/) -->

<svg
   xmlns:dc="http://purl.org/dc/elements/1.1/"
   xmlns:cc="http://creativecommons.org/ns#"
   xmlns:rdf="http://www.w3.org/1999/02/22-rdf-syntax-ns#"
   xmlns:svg="http://www.w3.org/2000/svg"
   xmlns="http://www.w3.org/2000/svg"
   xmlns:sodipodi="http://sodipodi.sourceforge.net/DTD/sodipodi-0.dtd"
   xmlns:inkscape="http://www.inkscape.org/namespaces/inkscape"
   width="217.90326mm"
   height="85.800591mm"
   viewBox="0 0 217.90326 85.800591"
   version="1.1"
   id="svg8"
   inkscape:version="0.92.2 (5c3e80d, 2017-08-06)"
   sodipodi:docname="autodiff.svg">
  <defs
     id="defs2">
    <marker
       inkscape:stockid="Arrow2Send"
       orient="auto"
       refY="0"
       refX="0"
       id="Arrow2Send"
       style="overflow:visible"
       inkscape:isstock="true">
      <path
         id="path1127"
         style="fill:#000000;fill-opacity:1;fill-rule:evenodd;stroke:#000000;stroke-width:0.625;stroke-linejoin:round;stroke-opacity:1"
         d="M 8.7185878,4.0337352 -2.2072895,0.01601326 8.7185884,-4.0017078 c -1.7454984,2.3720609 -1.7354408,5.6174519 -6e-7,8.035443 z"
         transform="matrix(-0.3,0,0,-0.3,0.69,0)"
         inkscape:connector-curvature="0" />
    </marker>
    <marker
       inkscape:stockid="TriangleOutM"
       orient="auto"
       refY="0"
       refX="0"
       id="TriangleOutM"
       style="overflow:visible"
       inkscape:isstock="true">
      <path
         id="path1239"
         d="M 5.77,0 -2.88,5 V -5 Z"
         style="fill:#000000;fill-opacity:1;fill-rule:evenodd;stroke:#000000;stroke-width:1.00000003pt;stroke-opacity:1"
         transform="scale(0.4)"
         inkscape:connector-curvature="0" />
    </marker>
  </defs>
  <sodipodi:namedview
     id="base"
     pagecolor="#ffffff"
     bordercolor="#666666"
     borderopacity="1.0"
     inkscape:pageopacity="0.0"
     inkscape:pageshadow="2"
     inkscape:zoom="1.4"
     inkscape:cx="287.7505"
     inkscape:cy="295.01277"
     inkscape:document-units="mm"
     inkscape:current-layer="layer1"
     showgrid="false"
     inkscape:window-width="3840"
     inkscape:window-height="2123"
     inkscape:window-x="3840"
     inkscape:window-y="0"
     inkscape:window-maximized="1"
     fit-margin-top="0"
     fit-margin-left="0"
     fit-margin-right="0"
     fit-margin-bottom="0" />
  <metadata
     id="metadata5">
    <rdf:RDF>
      <cc:Work
         rdf:about="">
        <dc:format>image/svg+xml</dc:format>
        <dc:type
           rdf:resource="http://purl.org/dc/dcmitype/StillImage" />
        <dc:title></dc:title>
      </cc:Work>
    </rdf:RDF>
  </metadata>
  <g
     inkscape:label="Layer 1"
     inkscape:groupmode="layer"
     id="layer1"
     transform="translate(-221.87201,-56.607143)">
    <rect
       style="opacity:1;fill:#f9f9f9;fill-opacity:1;stroke:none;stroke-width:0.5;stroke-linecap:butt;stroke-miterlimit:4;stroke-dasharray:none;stroke-dashoffset:0;stroke-opacity:1"
       id="rect843"
       width="217.90326"
       height="85.800591"
       x="221.87201"
       y="56.607143" />
    <text
       xml:space="preserve"
       style="font-style:normal;font-weight:normal;font-size:4.23333311px;line-height:1.25;font-family:sans-serif;letter-spacing:0px;word-spacing:0px;fill:#333333;fill-opacity:1;stroke:none;stroke-width:0.26458332"
       x="174.15904"
       y="177.37634"
       id="text817"><tspan
         sodipodi:role="line"
         id="tspan815"
         x="174.15904"
         y="177.37634"
         style="font-style:normal;font-variant:normal;font-weight:bold;font-stretch:normal;font-family:'Courier Prime';-inkscape-font-specification:'Courier Prime';fill:#333333;fill-opacity:1;stroke-width:0.26458332">y = f(x) </tspan><tspan
         sodipodi:role="line"
         x="174.15904"
         y="182.96983"
         style="font-style:normal;font-variant:normal;font-weight:bold;font-stretch:normal;font-family:'Courier Prime';-inkscape-font-specification:'Courier Prime';fill:#333333;fill-opacity:1;stroke-width:0.26458332"
         id="tspan905">dydx = grad(y, x)</tspan><tspan
         sodipodi:role="line"
         x="174.15904"
         y="188.56332"
         style="font-style:normal;font-variant:normal;font-weight:bold;font-stretch:normal;font-family:'Courier Prime';-inkscape-font-specification:'Courier Prime';fill:#333333;fill-opacity:1;stroke-width:0.26458332"
         id="tspan819" /></text>
    <g
       id="g903"
       transform="translate(-0.01264143,0.09449462)">
      <text
         id="text823"
         y="105.99804"
         x="236.06351"
         style="font-style:normal;font-weight:normal;font-size:39.49227142px;line-height:1.25;font-family:sans-serif;letter-spacing:0px;word-spacing:0px;fill:#000000;fill-opacity:1;stroke:none;stroke-width:0.26458335"
         xml:space="preserve"><tspan
           style="font-style:normal;font-variant:normal;font-weight:bold;font-stretch:normal;font-family:'Courier Prime';-inkscape-font-specification:'Courier Prime';stroke-width:0.26458335"
           y="105.99804"
           x="236.06351"
           id="tspan821"
           sodipodi:role="line"><tspan
             id="tspan825"
             style="fill:#333333;stroke-width:0.26458335">auto</tspan><tspan
             id="tspan831"
             style="fill:#ff5555;stroke-width:0.26458335">diff</tspan></tspan></text>
      <text
         id="text835"
         y="118.25326"
         x="243.81985"
         style="font-style:normal;font-variant:normal;font-weight:normal;font-stretch:normal;font-size:6.21115589px;line-height:1.25;font-family:'Courier Prime Sans';-inkscape-font-specification:'Courier Prime Sans';letter-spacing:0px;word-spacing:0px;fill:#000000;fill-opacity:1;stroke:none;stroke-width:0.26458332"
         xml:space="preserve"><tspan
           style="font-style:normal;font-variant:normal;font-weight:normal;font-stretch:normal;font-family:'Courier Prime Sans';-inkscape-font-specification:'Courier Prime Sans';fill:#999999;stroke-width:0.26458332"
           y="118.25326"
           x="243.81985"
           id="tspan833"
           sodipodi:role="line"><tspan
   id="tspan841"
   style="font-weight:bold;stroke-width:0.26458332">automatic differentiation</tspan> as simple as it gets!</tspan></text>
    </g>
    <g
       id="g2216">
      <g
         style="stroke-width:1.22465587"
         transform="matrix(0.81655592,0,0,0.81655592,24.790841,83.8727)"
         id="g2187">
        <g
           style="stroke-width:1.22465587"
           id="g2148"
           transform="translate(0,-2.1381562)">
          <path
             d="m 269.37713,129.03911 q -0.0636,0 -0.10858,-0.0145 -0.045,-0.0145 -0.0749,-0.0562 -0.0263,-0.0412 -0.0411,-0.11619 -0.0109,-0.0749 -0.0109,-0.19483 0,-0.11982 0.0109,-0.19484 0.0145,-0.0749 0.0411,-0.11619 0.0299,-0.045 0.0749,-0.06 0.045,-0.0145 0.10858,-0.0145 h 1.51368 q 0.0636,0 0.10876,0.0145 0.0449,0.0145 0.0712,0.06 0.0299,0.0411 0.0411,0.11619 0.0145,0.0749 0.0145,0.19484 0,0.11981 -0.0145,0.19483 -0.0109,0.0749 -0.0411,0.11619 -0.0263,0.0411 -0.0712,0.0562 -0.045,0.0145 -0.10876,0.0145 h -0.2248 l 0.65194,1.42376 0.65194,-1.42376 h -0.20234 q -0.0636,0 -0.10858,-0.0145 -0.045,-0.0145 -0.0749,-0.0562 -0.0263,-0.0412 -0.0411,-0.11619 -0.0109,-0.0749 -0.0109,-0.19483 0,-0.11982 0.0109,-0.19484 0.0145,-0.0749 0.0411,-0.11619 0.0299,-0.045 0.0749,-0.06 0.045,-0.0145 0.10858,-0.0145 h 1.43875 q 0.0636,0 0.10858,0.0145 0.0449,0.0145 0.0712,0.06 0.0299,0.0411 0.0412,0.11619 0.0145,0.0749 0.0145,0.19484 0,0.11981 -0.0145,0.19483 -0.0109,0.0749 -0.0412,0.11619 -0.0263,0.0411 -0.0712,0.0562 -0.045,0.0145 -0.10858,0.0145 h -0.23979 l -1.435,2.90747 q -0.19483,0.39342 -0.37468,0.64445 -0.176,0.25478 -0.3859,0.40464 -0.20608,0.14991 -0.46461,0.21356 -0.25478,0.0636 -0.60697,0.0749 -0.10857,0.004 -0.18359,-0.0749 -0.0712,-0.0787 -0.0861,-0.31097 -0.007,-0.12742 0,-0.21731 0.0109,-0.0861 0.0375,-0.13866 0.0263,-0.0524 0.0636,-0.0787 0.0375,-0.0225 0.0899,-0.0263 0.22107,-0.0109 0.37469,-0.0674 0.15733,-0.0524 0.28474,-0.17238 0.13105,-0.11981 0.25104,-0.31474 0.11982,-0.19482 0.27351,-0.48706 l -1.14651,-2.35671 z"
             style="font-style:normal;font-variant:normal;font-weight:bold;font-stretch:normal;font-size:medium;line-height:1.25;font-family:'Courier Prime';-inkscape-font-specification:'Courier Prime';letter-spacing:0px;word-spacing:0px;fill:#333333;fill-opacity:1;stroke:none;stroke-width:0.32402351"
             id="path921"
             inkscape:connector-curvature="0" />
          <path
             d="m 280.12483,128.24075 q 0.0636,0 0.10858,0.0187 0.045,0.0145 0.0712,0.06 0.0299,0.045 0.0412,0.12742 0.0145,0.0825 0.0145,0.21732 0,0.13485 -0.0145,0.21731 -0.0109,0.0825 -0.0412,0.12743 -0.0263,0.045 -0.0712,0.06 -0.0449,0.0145 -0.10858,0.0145 h -2.85502 q -0.0636,0 -0.10858,-0.0145 -0.0449,-0.0145 -0.0749,-0.06 -0.0263,-0.045 -0.0411,-0.12743 -0.0109,-0.0825 -0.0109,-0.21731 0,-0.13486 0.0109,-0.21732 0.0145,-0.0825 0.0411,-0.12742 0.0299,-0.045 0.0749,-0.06 0.045,-0.0187 0.10858,-0.0187 z m 0,1.71601 q 0.0636,0 0.10858,0.0187 0.045,0.0145 0.0712,0.06 0.0299,0.045 0.0412,0.12742 0.0145,0.0825 0.0145,0.21731 0,0.13486 -0.0145,0.21732 -0.0109,0.0825 -0.0412,0.12742 -0.0263,0.045 -0.0712,0.06 -0.0449,0.0145 -0.10858,0.0145 h -2.85502 q -0.0636,0 -0.10858,-0.0145 -0.0449,-0.0145 -0.0749,-0.06 -0.0263,-0.045 -0.0411,-0.12742 -0.0109,-0.0825 -0.0109,-0.21732 0,-0.13485 0.0109,-0.21731 0.0145,-0.0825 0.0411,-0.12742 0.0299,-0.045 0.0749,-0.06 0.045,-0.0187 0.10858,-0.0187 z"
             style="font-style:normal;font-variant:normal;font-weight:bold;font-stretch:normal;font-size:medium;line-height:1.25;font-family:'Courier Prime';-inkscape-font-specification:'Courier Prime';letter-spacing:0px;word-spacing:0px;fill:#333333;fill-opacity:1;stroke:none;stroke-width:0.32402351"
             id="path923"
             inkscape:connector-curvature="0" />
          <g
             id="g938"
             transform="matrix(1.8126005,0,0,1.8126005,-219.9823,-148.24403)"
             style="font-style:normal;font-weight:normal;font-size:medium;line-height:1.25;font-family:sans-serif;letter-spacing:0px;word-spacing:0px;fill:#333333;fill-opacity:1;stroke:none;stroke-width:0.17876169">
            <path
               id="path925"
               style="font-style:normal;font-variant:normal;font-weight:bold;font-stretch:normal;font-family:'Courier Prime';-inkscape-font-specification:'Courier Prime';fill:#333333;fill-opacity:1;stroke-width:0.17876169"
               d="m 278.52624,154.03779 v -0.91778 h -0.37827 q -0.0351,0 -0.0599,-0.0103 -0.0248,-0.0103 -0.0413,-0.0351 -0.0145,-0.0248 -0.0227,-0.0662 -0.006,-0.0434 -0.006,-0.10955 0,-0.0661 0.006,-0.10956 0.008,-0.0434 0.0227,-0.0682 0.0165,-0.0248 0.0413,-0.0351 0.0248,-0.0103 0.0599,-0.0103 h 0.37827 v -0.1509 q 0,-0.38861 0.18811,-0.58704 0.1881,-0.19844 0.54983,-0.19844 0.14677,0 0.30179,0.0269 0.1571,0.0269 0.3266,0.091 0.0351,0.0124 0.0579,0.0331 0.0248,0.0207 0.0351,0.0538 0.0124,0.031 0.008,0.0765 -0.002,0.0455 -0.0186,0.10955 -0.0165,0.062 -0.0393,0.0992 -0.0207,0.0372 -0.0475,0.0537 -0.0269,0.0165 -0.0579,0.0165 -0.0289,0 -0.062,-0.0103 -0.1323,-0.0413 -0.24392,-0.06 -0.10955,-0.0207 -0.21497,-0.0207 -0.12816,0 -0.19844,0.0827 -0.0682,0.0806 -0.0682,0.26045 v 0.12403 h 0.64285 q 0.0351,0 0.06,0.0103 0.0248,0.0103 0.0393,0.0351 0.0165,0.0248 0.0227,0.0682 0.008,0.0434 0.008,0.10956 0,0.0661 -0.008,0.10955 -0.006,0.0413 -0.0227,0.0662 -0.0145,0.0248 -0.0393,0.0351 -0.0248,0.0103 -0.06,0.0103 h -0.64285 v 0.91778 h 0.58084 q 0.0351,0 0.06,0.008 0.0248,0.008 0.0393,0.0331 0.0165,0.0227 0.0227,0.0641 0.008,0.0413 0.008,0.10748 0,0.0662 -0.008,0.10749 -0.006,0.0413 -0.0227,0.0641 -0.0145,0.0227 -0.0393,0.031 -0.0248,0.008 -0.06,0.008 h -1.47588 q -0.0351,0 -0.0599,-0.008 -0.0248,-0.008 -0.0413,-0.031 -0.0145,-0.0227 -0.0227,-0.0641 -0.006,-0.0413 -0.006,-0.10749 0,-0.0661 0.006,-0.10748 0.008,-0.0414 0.0227,-0.0641 0.0165,-0.0248 0.0413,-0.0331 0.0248,-0.008 0.0599,-0.008 z"
               inkscape:connector-curvature="0" />
            <path
               id="path927"
               style="font-style:normal;font-variant:normal;font-weight:bold;font-stretch:normal;font-family:'Courier Prime';-inkscape-font-specification:'Courier Prime';fill:#333333;fill-opacity:1;stroke-width:0.17876169"
               d="m 281.8046,155.28215 q -0.19637,-0.11162 -0.38861,-0.27698 -0.19017,-0.1633 -0.34106,-0.38447 -0.14883,-0.21911 -0.24185,-0.4961 -0.091,-0.27698 -0.091,-0.61185 0,-0.33486 0.091,-0.61185 0.093,-0.27698 0.24185,-0.49609 0.15089,-0.22117 0.34106,-0.38447 0.19224,-0.16537 0.38861,-0.27699 0.062,-0.0351 0.12816,0.006 0.0661,0.0393 0.11988,0.11783 0.0269,0.0413 0.0455,0.0848 0.0186,0.0434 0.0248,0.0806 0.006,0.0372 -0.002,0.0682 -0.006,0.0289 -0.031,0.0434 -0.2005,0.12609 -0.35553,0.27079 -0.15503,0.14262 -0.26252,0.31212 -0.10542,0.16743 -0.16123,0.3638 -0.0558,0.19431 -0.0558,0.42168 0,0.22738 0.0558,0.42375 0.0558,0.1943 0.16123,0.3638 0.10749,0.16743 0.26252,0.31006 0.15503,0.14469 0.35553,0.27079 0.0248,0.0165 0.031,0.0455 0.008,0.0289 0.002,0.0661 -0.006,0.0372 -0.0248,0.0806 -0.0186,0.0434 -0.0455,0.0848 -0.0537,0.0786 -0.11988,0.11782 -0.0661,0.0413 -0.12816,0.006 z"
               inkscape:connector-curvature="0" />
            <path
               id="path929"
               style="font-style:normal;font-variant:normal;font-weight:bold;font-stretch:normal;font-family:'Courier Prime';-inkscape-font-specification:'Courier Prime';fill:#333333;fill-opacity:1;stroke-width:0.17876169"
               d="m 283.66082,153.49208 -0.5085,-0.51676 h -0.10749 q -0.0351,0 -0.0599,-0.008 -0.0248,-0.008 -0.0413,-0.031 -0.0145,-0.0227 -0.0227,-0.0641 -0.006,-0.0413 -0.006,-0.10749 0,-0.0661 0.006,-0.10749 0.008,-0.0413 0.0227,-0.0641 0.0165,-0.0248 0.0413,-0.0331 0.0248,-0.008 0.0599,-0.008 h 0.77308 q 0.0351,0 0.06,0.008 0.0248,0.008 0.0393,0.0331 0.0165,0.0227 0.0227,0.0641 0.008,0.0413 0.008,0.10749 0,0.0661 -0.008,0.10749 -0.006,0.0413 -0.0227,0.0641 -0.0145,0.0227 -0.0393,0.031 -0.0248,0.008 -0.06,0.008 h -0.0269 l 0.26458,0.27078 0.25012,-0.27078 h -0.0455 q -0.0351,0 -0.0599,-0.008 -0.0248,-0.008 -0.0413,-0.031 -0.0145,-0.0227 -0.0227,-0.0641 -0.006,-0.0413 -0.006,-0.10749 0,-0.0661 0.006,-0.10749 0.008,-0.0413 0.0227,-0.0641 0.0165,-0.0248 0.0413,-0.0331 0.0248,-0.008 0.0599,-0.008 h 0.73174 q 0.0351,0 0.0599,0.008 0.0248,0.008 0.0393,0.0331 0.0165,0.0227 0.0227,0.0641 0.008,0.0413 0.008,0.10749 0,0.0661 -0.008,0.10749 -0.006,0.0413 -0.0227,0.0641 -0.0145,0.0227 -0.0393,0.031 -0.0248,0.008 -0.0599,0.008 h -0.12196 l -0.49816,0.51883 0.53537,0.54364 h 0.10542 q 0.0351,0 0.0599,0.008 0.0248,0.008 0.0393,0.0331 0.0165,0.0227 0.0227,0.0641 0.008,0.0413 0.008,0.10748 0,0.0662 -0.008,0.10749 -0.006,0.0413 -0.0227,0.0641 -0.0145,0.0227 -0.0393,0.031 -0.0248,0.008 -0.0599,0.008 h -0.79375 q -0.0351,0 -0.0599,-0.008 -0.0248,-0.008 -0.0413,-0.031 -0.0145,-0.0227 -0.0227,-0.0641 -0.006,-0.0413 -0.006,-0.10749 0,-0.0661 0.006,-0.10748 0.008,-0.0414 0.0227,-0.0641 0.0165,-0.0248 0.0413,-0.0331 0.0248,-0.008 0.0599,-0.008 h 0.0289 l -0.27079,-0.27699 -0.25631,0.27699 h 0.0351 q 0.0351,0 0.0599,0.008 0.0248,0.008 0.0393,0.0331 0.0165,0.0227 0.0227,0.0641 0.008,0.0413 0.008,0.10748 0,0.0662 -0.008,0.10749 -0.006,0.0413 -0.0227,0.0641 -0.0145,0.0227 -0.0393,0.031 -0.0248,0.008 -0.0599,0.008 h -0.73174 q -0.0351,0 -0.0599,-0.008 -0.0248,-0.008 -0.0413,-0.031 -0.0145,-0.0227 -0.0227,-0.0641 -0.006,-0.0413 -0.006,-0.10749 0,-0.0661 0.006,-0.10748 0.008,-0.0414 0.0227,-0.0641 0.0165,-0.0248 0.0413,-0.0331 0.0248,-0.008 0.0599,-0.008 h 0.11162 z"
               inkscape:connector-curvature="0" />
            <path
               id="path931"
               style="font-style:normal;font-variant:normal;font-weight:bold;font-stretch:normal;font-family:'Courier Prime';-inkscape-font-specification:'Courier Prime';fill:#333333;fill-opacity:1;stroke-width:0.17876169"
               d="m 286.23224,155.28215 q -0.062,0.0351 -0.12816,-0.006 -0.0661,-0.0393 -0.11989,-0.11782 -0.0289,-0.0413 -0.0475,-0.0848 -0.0186,-0.0434 -0.0248,-0.0806 -0.006,-0.0372 0.002,-0.0661 0.008,-0.0289 0.0331,-0.0455 0.20051,-0.1261 0.35554,-0.27079 0.15502,-0.14263 0.26044,-0.31006 0.10749,-0.1695 0.1633,-0.3638 0.0558,-0.19637 0.0558,-0.42375 0,-0.22737 -0.0558,-0.42168 -0.0558,-0.19637 -0.1633,-0.3638 -0.10542,-0.1695 -0.26044,-0.31212 -0.15503,-0.1447 -0.35554,-0.27079 -0.0248,-0.0145 -0.0331,-0.0434 -0.008,-0.031 -0.002,-0.0682 0.006,-0.0372 0.0248,-0.0806 0.0186,-0.0434 0.0475,-0.0848 0.0537,-0.0786 0.11989,-0.11783 0.0661,-0.0413 0.12816,-0.006 0.19637,0.11162 0.38653,0.27699 0.19224,0.1633 0.34107,0.38447 0.15089,0.21911 0.24184,0.49609 0.093,0.27699 0.093,0.61185 0,0.33487 -0.093,0.61185 -0.091,0.27699 -0.24184,0.4961 -0.14883,0.22117 -0.34107,0.38447 -0.19016,0.16536 -0.38653,0.27698 z"
               inkscape:connector-curvature="0" />
          </g>
        </g>
        <g
           style="stroke-width:1.22465587"
           id="g2139">
          <g
             transform="matrix(1.8126005,0,0,1.8126005,-264.63142,-147.97254)"
             id="g1004"
             style="font-style:normal;font-weight:normal;font-size:medium;line-height:1.25;font-family:sans-serif;letter-spacing:0px;word-spacing:0px;fill:#333333;fill-opacity:1;stroke:none;stroke-width:0.17876169">
            <path
               inkscape:connector-curvature="0"
               id="path971"
               style="font-style:normal;font-variant:normal;font-weight:bold;font-stretch:normal;font-family:'Courier Prime';-inkscape-font-specification:'Courier Prime';fill:#333333;fill-opacity:1;stroke-width:0.17876169"
               d="m 289.17484,158.29003 q 0.0351,0 0.0599,0.008 0.0248,0.008 0.0393,0.031 0.0165,0.0227 0.0227,0.0641 0.008,0.0413 0.008,0.10749 0,0.0661 -0.008,0.10749 -0.006,0.0413 -0.0227,0.0661 -0.0145,0.0227 -0.0393,0.031 -0.0248,0.008 -0.0599,0.008 h -0.48369 q -0.0703,0 -0.10129,-0.0289 -0.0289,-0.031 -0.0289,-0.10129 v -0.14263 q -0.10749,0.15297 -0.26666,0.23565 -0.15916,0.0827 -0.35966,0.0827 -0.20464,0 -0.37001,-0.0724 -0.16329,-0.0744 -0.28112,-0.20257 -0.11575,-0.13022 -0.17776,-0.30799 -0.062,-0.17777 -0.062,-0.38654 0,-0.20877 0.062,-0.38654 0.062,-0.17777 0.17776,-0.30592 0.11783,-0.13023 0.28112,-0.20257 0.16537,-0.0744 0.37001,-0.0744 0.16329,0 0.29972,0.062 0.13849,0.062 0.24391,0.1757 v -0.63252 h -0.40721 q -0.0351,0 -0.0599,-0.008 -0.0248,-0.008 -0.0413,-0.031 -0.0145,-0.0227 -0.0227,-0.0641 -0.006,-0.0413 -0.006,-0.10749 0,-0.0661 0.006,-0.10748 0.008,-0.0413 0.0227,-0.0641 0.0165,-0.0248 0.0413,-0.0331 0.0248,-0.008 0.0599,-0.008 h 0.79375 q 0.0703,0 0.0992,0.031 0.031,0.0289 0.031,0.0992 v 2.15801 z m -0.68213,-0.50023 q 0,-0.12609 -0.0393,-0.21911 -0.0372,-0.0951 -0.10335,-0.15709 -0.0641,-0.062 -0.1509,-0.093 -0.0847,-0.031 -0.1819,-0.031 -0.19017,0 -0.30593,0.12816 -0.11368,0.12816 -0.11368,0.37207 0,0.24391 0.11368,0.37207 0.11576,0.12816 0.30593,0.12816 0.0971,0 0.1819,-0.031 0.0868,-0.031 0.1509,-0.093 0.0661,-0.062 0.10335,-0.15503 0.0393,-0.0951 0.0393,-0.22118 z" />
            <path
               inkscape:connector-curvature="0"
               id="path973"
               style="font-style:normal;font-variant:normal;font-weight:bold;font-stretch:normal;font-family:'Courier Prime';-inkscape-font-specification:'Courier Prime';fill:#333333;fill-opacity:1;stroke-width:0.17876169"
               d="m 289.59445,157.22756 q -0.0351,0 -0.0599,-0.008 -0.0248,-0.008 -0.0413,-0.031 -0.0145,-0.0227 -0.0227,-0.0641 -0.006,-0.0413 -0.006,-0.10749 0,-0.0661 0.006,-0.10749 0.008,-0.0413 0.0227,-0.0641 0.0165,-0.0248 0.0413,-0.0331 0.0248,-0.008 0.0599,-0.008 h 0.83509 q 0.0351,0 0.06,0.008 0.0248,0.008 0.0393,0.0331 0.0165,0.0227 0.0227,0.0641 0.008,0.0413 0.008,0.10749 0,0.0662 -0.008,0.10749 -0.006,0.0413 -0.0227,0.0641 -0.0145,0.0227 -0.0393,0.031 -0.0248,0.008 -0.06,0.008 h -0.12402 l 0.35967,0.78548 0.35967,-0.78548 h -0.11162 q -0.0351,0 -0.0599,-0.008 -0.0248,-0.008 -0.0413,-0.031 -0.0145,-0.0227 -0.0227,-0.0641 -0.006,-0.0413 -0.006,-0.10749 0,-0.0661 0.006,-0.10749 0.008,-0.0413 0.0227,-0.0641 0.0165,-0.0248 0.0413,-0.0331 0.0248,-0.008 0.0599,-0.008 h 0.79375 q 0.0351,0 0.0599,0.008 0.0248,0.008 0.0393,0.0331 0.0165,0.0227 0.0227,0.0641 0.008,0.0413 0.008,0.10749 0,0.0662 -0.008,0.10749 -0.006,0.0413 -0.0227,0.0641 -0.0145,0.0227 -0.0393,0.031 -0.0248,0.008 -0.0599,0.008 h -0.1323 l -0.79168,1.60404 q -0.10749,0.21704 -0.2067,0.35553 -0.0972,0.14056 -0.21291,0.22324 -0.11369,0.0827 -0.25632,0.11783 -0.14056,0.0351 -0.33486,0.0413 -0.0599,0.002 -0.10129,-0.0413 -0.0393,-0.0434 -0.0475,-0.17157 -0.004,-0.0703 0,-0.11989 0.006,-0.0475 0.0207,-0.0765 0.0145,-0.0289 0.0351,-0.0434 0.0207,-0.0124 0.0496,-0.0145 0.12196,-0.006 0.20671,-0.0372 0.0868,-0.0289 0.15709,-0.0951 0.0724,-0.0661 0.1385,-0.17363 0.0661,-0.10749 0.15089,-0.26872 l -0.63252,-1.30018 z" />
            <path
               inkscape:connector-curvature="0"
               id="path975"
               style="font-style:normal;font-variant:normal;font-weight:bold;font-stretch:normal;font-family:'Courier Prime';-inkscape-font-specification:'Courier Prime';fill:#333333;fill-opacity:1;stroke-width:0.17876169"
               d="m 294.25153,158.29003 q 0.0351,0 0.06,0.008 0.0248,0.008 0.0393,0.031 0.0165,0.0227 0.0227,0.0641 0.008,0.0413 0.008,0.10749 0,0.0661 -0.008,0.10749 -0.006,0.0413 -0.0227,0.0661 -0.0145,0.0227 -0.0393,0.031 -0.0248,0.008 -0.06,0.008 h -0.48369 q -0.0703,0 -0.10128,-0.0289 -0.0289,-0.031 -0.0289,-0.10129 v -0.14263 q -0.10749,0.15297 -0.26665,0.23565 -0.15917,0.0827 -0.35967,0.0827 -0.20464,0 -0.37,-0.0724 -0.1633,-0.0744 -0.28112,-0.20257 -0.11576,-0.13022 -0.17777,-0.30799 -0.062,-0.17777 -0.062,-0.38654 0,-0.20877 0.062,-0.38654 0.062,-0.17777 0.17777,-0.30592 0.11782,-0.13023 0.28112,-0.20257 0.16536,-0.0744 0.37,-0.0744 0.1633,0 0.29972,0.062 0.1385,0.062 0.24392,0.1757 v -0.63252 h -0.40721 q -0.0351,0 -0.06,-0.008 -0.0248,-0.008 -0.0413,-0.031 -0.0145,-0.0227 -0.0227,-0.0641 -0.006,-0.0413 -0.006,-0.10749 0,-0.0661 0.006,-0.10748 0.008,-0.0413 0.0227,-0.0641 0.0165,-0.0248 0.0413,-0.0331 0.0248,-0.008 0.06,-0.008 h 0.79375 q 0.0703,0 0.0992,0.031 0.031,0.0289 0.031,0.0992 v 2.15801 z m -0.68213,-0.50023 q 0,-0.12609 -0.0393,-0.21911 -0.0372,-0.0951 -0.10335,-0.15709 -0.0641,-0.062 -0.1509,-0.093 -0.0847,-0.031 -0.1819,-0.031 -0.19017,0 -0.30592,0.12816 -0.11369,0.12816 -0.11369,0.37207 0,0.24391 0.11369,0.37207 0.11575,0.12816 0.30592,0.12816 0.0971,0 0.1819,-0.031 0.0868,-0.031 0.1509,-0.093 0.0661,-0.062 0.10335,-0.15503 0.0393,-0.0951 0.0393,-0.22118 z" />
            <path
               inkscape:connector-curvature="0"
               id="path977"
               style="font-style:normal;font-variant:normal;font-weight:bold;font-stretch:normal;font-family:'Courier Prime';-inkscape-font-specification:'Courier Prime';fill:#333333;fill-opacity:1;stroke-width:0.17876169"
               d="m 295.36981,157.74433 -0.50849,-0.51677 h -0.10749 q -0.0351,0 -0.06,-0.008 -0.0248,-0.008 -0.0413,-0.031 -0.0145,-0.0227 -0.0227,-0.0641 -0.006,-0.0413 -0.006,-0.10749 0,-0.0661 0.006,-0.10749 0.008,-0.0413 0.0227,-0.0641 0.0165,-0.0248 0.0413,-0.0331 0.0248,-0.008 0.06,-0.008 h 0.77308 q 0.0351,0 0.0599,0.008 0.0248,0.008 0.0393,0.0331 0.0165,0.0227 0.0227,0.0641 0.008,0.0413 0.008,0.10749 0,0.0662 -0.008,0.10749 -0.006,0.0413 -0.0227,0.0641 -0.0145,0.0227 -0.0393,0.031 -0.0248,0.008 -0.0599,0.008 h -0.0269 l 0.26458,0.27079 0.25011,-0.27079 h -0.0455 q -0.0351,0 -0.06,-0.008 -0.0248,-0.008 -0.0413,-0.031 -0.0145,-0.0227 -0.0227,-0.0641 -0.006,-0.0413 -0.006,-0.10749 0,-0.0661 0.006,-0.10749 0.008,-0.0413 0.0227,-0.0641 0.0165,-0.0248 0.0413,-0.0331 0.0248,-0.008 0.06,-0.008 h 0.73174 q 0.0351,0 0.0599,0.008 0.0248,0.008 0.0393,0.0331 0.0165,0.0227 0.0227,0.0641 0.008,0.0413 0.008,0.10749 0,0.0662 -0.008,0.10749 -0.006,0.0413 -0.0227,0.0641 -0.0145,0.0227 -0.0393,0.031 -0.0248,0.008 -0.0599,0.008 h -0.12196 l -0.49816,0.51883 0.53537,0.54364 h 0.10542 q 0.0351,0 0.0599,0.008 0.0248,0.008 0.0393,0.0331 0.0165,0.0227 0.0227,0.0641 0.008,0.0413 0.008,0.10749 0,0.0661 -0.008,0.10748 -0.006,0.0413 -0.0227,0.0641 -0.0145,0.0227 -0.0393,0.031 -0.0248,0.008 -0.0599,0.008 h -0.79375 q -0.0351,0 -0.0599,-0.008 -0.0248,-0.008 -0.0413,-0.031 -0.0145,-0.0227 -0.0227,-0.0641 -0.006,-0.0413 -0.006,-0.10748 0,-0.0661 0.006,-0.10749 0.008,-0.0413 0.0227,-0.0641 0.0165,-0.0248 0.0413,-0.0331 0.0248,-0.008 0.0599,-0.008 h 0.0289 l -0.27079,-0.27699 -0.25631,0.27699 h 0.0351 q 0.0351,0 0.0599,0.008 0.0248,0.008 0.0393,0.0331 0.0165,0.0227 0.0227,0.0641 0.008,0.0413 0.008,0.10749 0,0.0661 -0.008,0.10748 -0.006,0.0413 -0.0227,0.0641 -0.0145,0.0227 -0.0393,0.031 -0.0248,0.008 -0.0599,0.008 h -0.73174 q -0.0351,0 -0.06,-0.008 -0.0248,-0.008 -0.0413,-0.031 -0.0145,-0.0227 -0.0227,-0.0641 -0.006,-0.0413 -0.006,-0.10748 0,-0.0661 0.006,-0.10749 0.008,-0.0413 0.0227,-0.0641 0.0165,-0.0248 0.0413,-0.0331 0.0248,-0.008 0.06,-0.008 h 0.11162 z" />
          </g>
          <path
             d="m 280.12502,136.25012 q 0.0636,0 0.10857,0.0187 0.045,0.0145 0.0712,0.06 0.0299,0.045 0.0411,0.12742 0.0145,0.0825 0.0145,0.21731 0,0.13486 -0.0145,0.21732 -0.0109,0.0825 -0.0411,0.12742 -0.0263,0.045 -0.0712,0.06 -0.0449,0.0145 -0.10857,0.0145 h -2.85501 q -0.0636,0 -0.10876,-0.0145 -0.045,-0.0145 -0.0749,-0.06 -0.0263,-0.045 -0.0412,-0.12742 -0.0109,-0.0825 -0.0109,-0.21732 0,-0.13485 0.0109,-0.21731 0.0145,-0.0825 0.0412,-0.12742 0.0299,-0.045 0.0749,-0.06 0.0449,-0.0187 0.10876,-0.0187 z m 0,1.71602 q 0.0636,0 0.10857,0.0187 0.045,0.0145 0.0712,0.06 0.0299,0.045 0.0411,0.12743 0.0145,0.0825 0.0145,0.21729 0,0.13486 -0.0145,0.21731 -0.0109,0.0825 -0.0411,0.12743 -0.0263,0.045 -0.0712,0.06 -0.0449,0.0145 -0.10857,0.0145 h -2.85501 q -0.0636,0 -0.10876,-0.0145 -0.045,-0.0145 -0.0749,-0.06 -0.0263,-0.045 -0.0412,-0.12743 -0.0109,-0.0825 -0.0109,-0.21731 0,-0.13486 0.0109,-0.21729 0.0145,-0.0825 0.0412,-0.12743 0.0299,-0.045 0.0749,-0.06 0.0449,-0.0187 0.10876,-0.0187 z"
             style="font-style:normal;font-variant:normal;font-weight:bold;font-stretch:normal;font-size:medium;line-height:1.25;font-family:'Courier Prime';-inkscape-font-specification:'Courier Prime';letter-spacing:0px;word-spacing:0px;fill:#333333;fill-opacity:1;stroke:none;stroke-width:0.32402351"
             id="path979"
             inkscape:connector-curvature="0" />
          <g
             transform="matrix(1.8126005,0,0,1.8126005,-268.54959,-147.97254)"
             id="g1013"
             style="font-style:normal;font-weight:normal;font-size:medium;line-height:1.25;font-family:sans-serif;letter-spacing:0px;word-spacing:0px;fill:#333333;fill-opacity:1;stroke:none;stroke-width:0.17876169">
            <path
               inkscape:connector-curvature="0"
               id="path981"
               style="font-style:normal;font-variant:normal;font-weight:bold;font-stretch:normal;font-family:'Courier Prime';-inkscape-font-specification:'Courier Prime';fill:#333333;fill-opacity:1;stroke-width:0.17876169"
               d="m 306.76343,158.72204 q 0,0.19844 -0.0599,0.35554 -0.0579,0.15709 -0.17777,0.26665 -0.11782,0.11162 -0.29766,0.1695 -0.17983,0.0579 -0.42374,0.0579 -0.1509,0 -0.33693,-0.031 -0.18604,-0.031 -0.39274,-0.091 -0.0724,-0.0227 -0.091,-0.0868 -0.0186,-0.0641 0.0207,-0.19223 0.0186,-0.062 0.0413,-0.0992 0.0227,-0.0372 0.0475,-0.0558 0.0269,-0.0165 0.0558,-0.0186 0.0289,0 0.062,0.008 0.1447,0.0413 0.29559,0.0682 0.15296,0.0289 0.27699,0.0289 0.25011,0 0.35553,-0.10748 0.10749,-0.10542 0.10749,-0.3142 v -0.22117 q -0.10542,0.11369 -0.24391,0.1757 -0.13643,0.062 -0.29973,0.062 -0.20464,0 -0.37,-0.0724 -0.1633,-0.0744 -0.28112,-0.20257 -0.11576,-0.13022 -0.17777,-0.30799 -0.062,-0.17777 -0.062,-0.38654 0,-0.20877 0.062,-0.38654 0.062,-0.17777 0.17777,-0.30592 0.11782,-0.13023 0.28112,-0.20258 0.16536,-0.0744 0.37,-0.0744 0.20051,0 0.35967,0.0827 0.15916,0.0827 0.26665,0.23771 v -0.14469 q 0,-0.0703 0.0289,-0.0992 0.031,-0.031 0.10128,-0.031 h 0.4837 q 0.0351,0 0.0599,0.008 0.0248,0.008 0.0393,0.0331 0.0165,0.0227 0.0227,0.0641 0.008,0.0413 0.008,0.10749 0,0.0662 -0.008,0.10749 -0.006,0.0413 -0.0227,0.0641 -0.0145,0.0227 -0.0393,0.031 -0.0248,0.008 -0.0599,0.008 h -0.17984 z m -0.50229,-0.99425 q 0,-0.12609 -0.0393,-0.21911 -0.0372,-0.0951 -0.10335,-0.1571 -0.0641,-0.062 -0.15089,-0.093 -0.0847,-0.031 -0.18191,-0.031 -0.19017,0 -0.30592,0.12816 -0.11369,0.12816 -0.11369,0.37207 0,0.24391 0.11369,0.37207 0.11575,0.12816 0.30592,0.12816 0.0972,0 0.18191,-0.031 0.0868,-0.031 0.15089,-0.093 0.0661,-0.062 0.10335,-0.15503 0.0393,-0.0951 0.0393,-0.22117 z" />
            <path
               inkscape:connector-curvature="0"
               id="path983"
               style="font-style:normal;font-variant:normal;font-weight:bold;font-stretch:normal;font-family:'Courier Prime';-inkscape-font-specification:'Courier Prime';fill:#333333;fill-opacity:1;stroke-width:0.17876169"
               d="m 307.84657,157.22756 h -0.24185 q -0.0351,0 -0.0599,-0.008 -0.0248,-0.008 -0.0413,-0.031 -0.0145,-0.0227 -0.0227,-0.0641 -0.006,-0.0413 -0.006,-0.10749 0,-0.0661 0.006,-0.10749 0.008,-0.0413 0.0227,-0.0641 0.0165,-0.0248 0.0413,-0.0331 0.0248,-0.008 0.0599,-0.008 h 0.56638 q 0.0703,0 0.0992,0.031 0.031,0.0289 0.031,0.0992 v 0.44855 q 0.1571,-0.30179 0.3576,-0.46302 0.20051,-0.16123 0.40721,-0.16123 0.1757,0 0.33073,0.11575 0.0765,0.0579 0.0889,0.1385 0.0124,0.0786 -0.0351,0.19637 -0.0496,0.12609 -0.11369,0.16743 -0.0641,0.0393 -0.13023,0.004 -0.0599,-0.0331 -0.11989,-0.0475 -0.0599,-0.0165 -0.11989,-0.0165 -0.11989,0 -0.22944,0.0579 -0.10749,0.0579 -0.19224,0.16123 -0.0827,0.10336 -0.13229,0.24598 -0.0496,0.14263 -0.0496,0.31213 v 0.19637 h 0.59325 q 0.0351,0 0.0599,0.008 0.0248,0.008 0.0393,0.0331 0.0165,0.0227 0.0227,0.0641 0.008,0.0413 0.008,0.10749 0,0.0661 -0.008,0.10748 -0.006,0.0413 -0.0227,0.0641 -0.0145,0.0227 -0.0393,0.031 -0.0248,0.008 -0.0599,0.008 h -1.41387 q -0.0351,0 -0.0599,-0.008 -0.0248,-0.008 -0.0413,-0.031 -0.0145,-0.0227 -0.0227,-0.0641 -0.006,-0.0413 -0.006,-0.10748 0,-0.0661 0.006,-0.10749 0.008,-0.0413 0.0227,-0.0641 0.0165,-0.0248 0.0413,-0.0331 0.0248,-0.008 0.0599,-0.008 h 0.30386 z" />
            <path
               inkscape:connector-curvature="0"
               id="path985"
               style="font-style:normal;font-variant:normal;font-weight:bold;font-stretch:normal;font-family:'Courier Prime';-inkscape-font-specification:'Courier Prime';fill:#333333;fill-opacity:1;stroke-width:0.17876169"
               d="m 311.38744,158.49467 q -0.15917,0.12402 -0.34107,0.1943 -0.17983,0.0703 -0.37827,0.0703 -0.17777,0 -0.31833,-0.0455 -0.13849,-0.0455 -0.23564,-0.13023 -0.0971,-0.0868 -0.14883,-0.2067 -0.0496,-0.12196 -0.0496,-0.27286 0,-0.14469 0.0517,-0.25838 0.0537,-0.11369 0.15296,-0.19017 0.10129,-0.0786 0.24391,-0.11782 0.1447,-0.0413 0.32867,-0.0413 0.27491,0 0.58497,0.062 v -0.0599 q 0,-0.0641 -0.0207,-0.11369 -0.0207,-0.0517 -0.0682,-0.0868 -0.0455,-0.0351 -0.12402,-0.0517 -0.0765,-0.0186 -0.18811,-0.0186 -0.12402,0 -0.27078,0.031 -0.14676,0.031 -0.28939,0.0786 -0.0331,0.0103 -0.062,0.0124 -0.0289,0 -0.0558,-0.0145 -0.0269,-0.0165 -0.0517,-0.0517 -0.0248,-0.0372 -0.0475,-0.0992 -0.0455,-0.12402 -0.031,-0.19017 0.0145,-0.0661 0.0868,-0.093 0.0971,-0.0351 0.19844,-0.062 0.10335,-0.0269 0.20257,-0.0434 0.10129,-0.0186 0.19637,-0.0269 0.0971,-0.0103 0.1819,-0.0103 0.23565,0 0.39894,0.0537 0.16537,0.0517 0.26665,0.1509 0.10336,0.0992 0.14883,0.23978 0.0455,0.14056 0.0455,0.31419 v 0.59738 q 0,0.0827 0.0351,0.13022 0.0351,0.0455 0.10128,0.0455 h 0.0641 q 0.0351,0 0.0599,0.008 0.0248,0.008 0.0393,0.0331 0.0165,0.0227 0.0227,0.0641 0.008,0.0413 0.008,0.10749 0,0.0661 -0.008,0.10748 -0.006,0.0413 -0.0227,0.0641 -0.0145,0.0227 -0.0393,0.031 -0.0248,0.008 -0.0599,0.008 h -0.23151 q -0.12402,0 -0.22324,-0.0496 -0.0992,-0.0517 -0.15296,-0.1695 z m -0.10956,-0.51677 q -0.14469,-0.0289 -0.27698,-0.0413 -0.13023,-0.0145 -0.25632,-0.0145 -0.14676,0 -0.22117,0.0517 -0.0744,0.0517 -0.0744,0.15089 0,0.0992 0.0724,0.14883 0.0744,0.0496 0.21291,0.0496 0.14883,0 0.28732,-0.0579 0.13849,-0.0599 0.25631,-0.15503 z" />
            <path
               inkscape:connector-curvature="0"
               id="path987"
               style="font-style:normal;font-variant:normal;font-weight:bold;font-stretch:normal;font-family:'Courier Prime';-inkscape-font-specification:'Courier Prime';fill:#333333;fill-opacity:1;stroke-width:0.17876169"
               d="m 314.5583,158.29003 q 0.0351,0 0.06,0.008 0.0248,0.008 0.0393,0.031 0.0165,0.0227 0.0227,0.0641 0.008,0.0413 0.008,0.10749 0,0.0661 -0.008,0.10749 -0.006,0.0413 -0.0227,0.0661 -0.0145,0.0227 -0.0393,0.031 -0.0248,0.008 -0.06,0.008 h -0.48369 q -0.0703,0 -0.10128,-0.0289 -0.0289,-0.031 -0.0289,-0.10129 v -0.14263 q -0.10749,0.15297 -0.26665,0.23565 -0.15917,0.0827 -0.35967,0.0827 -0.20464,0 -0.37,-0.0724 -0.1633,-0.0744 -0.28112,-0.20257 -0.11576,-0.13022 -0.17777,-0.30799 -0.062,-0.17777 -0.062,-0.38654 0,-0.20877 0.062,-0.38654 0.062,-0.17777 0.17777,-0.30592 0.11782,-0.13023 0.28112,-0.20257 0.16536,-0.0744 0.37,-0.0744 0.1633,0 0.29972,0.062 0.1385,0.062 0.24392,0.1757 v -0.63252 h -0.40721 q -0.0351,0 -0.06,-0.008 -0.0248,-0.008 -0.0413,-0.031 -0.0145,-0.0227 -0.0227,-0.0641 -0.006,-0.0413 -0.006,-0.10749 0,-0.0661 0.006,-0.10748 0.008,-0.0413 0.0227,-0.0641 0.0165,-0.0248 0.0413,-0.0331 0.0248,-0.008 0.06,-0.008 h 0.79375 q 0.0703,0 0.0992,0.031 0.031,0.0289 0.031,0.0992 v 2.15801 z m -0.68212,-0.50023 q 0,-0.12609 -0.0393,-0.21911 -0.0372,-0.0951 -0.10335,-0.15709 -0.0641,-0.062 -0.1509,-0.093 -0.0847,-0.031 -0.1819,-0.031 -0.19017,0 -0.30592,0.12816 -0.11369,0.12816 -0.11369,0.37207 0,0.24391 0.11369,0.37207 0.11575,0.12816 0.30592,0.12816 0.0971,0 0.1819,-0.031 0.0868,-0.031 0.1509,-0.093 0.0661,-0.062 0.10335,-0.15503 0.0393,-0.0951 0.0393,-0.22118 z" />
            <path
               inkscape:connector-curvature="0"
               id="path989"
               style="font-style:normal;font-variant:normal;font-weight:bold;font-stretch:normal;font-family:'Courier Prime';-inkscape-font-specification:'Courier Prime';fill:#333333;fill-opacity:1;stroke-width:0.17876169"
               d="m 316.35871,159.5344 q -0.19637,-0.11162 -0.3886,-0.27699 -0.19017,-0.1633 -0.34107,-0.38447 -0.14883,-0.21911 -0.24184,-0.49609 -0.091,-0.27699 -0.091,-0.61185 0,-0.33487 0.091,-0.61185 0.093,-0.27699 0.24184,-0.4961 0.1509,-0.22117 0.34107,-0.38447 0.19223,-0.16536 0.3886,-0.27698 0.062,-0.0351 0.12816,0.006 0.0661,0.0393 0.11989,0.11782 0.0269,0.0413 0.0455,0.0848 0.0186,0.0434 0.0248,0.0806 0.006,0.0372 -0.002,0.0682 -0.006,0.0289 -0.031,0.0434 -0.20051,0.1261 -0.35554,0.27079 -0.15503,0.14263 -0.26251,0.31212 -0.10542,0.16744 -0.16123,0.36381 -0.0558,0.1943 -0.0558,0.42168 0,0.22737 0.0558,0.42374 0.0558,0.19431 0.16123,0.36381 0.10748,0.16743 0.26251,0.31005 0.15503,0.1447 0.35554,0.27079 0.0248,0.0165 0.031,0.0455 0.008,0.0289 0.002,0.0662 -0.006,0.0372 -0.0248,0.0806 -0.0186,0.0434 -0.0455,0.0848 -0.0537,0.0786 -0.11989,0.11783 -0.0661,0.0413 -0.12816,0.006 z" />
            <path
               inkscape:connector-curvature="0"
               id="path991"
               style="font-style:normal;font-variant:normal;font-weight:bold;font-stretch:normal;font-family:'Courier Prime';-inkscape-font-specification:'Courier Prime';fill:#333333;fill-opacity:1;stroke-width:0.17876169"
               d="m 317.51626,157.22756 q -0.0351,0 -0.0599,-0.008 -0.0248,-0.008 -0.0413,-0.031 -0.0145,-0.0227 -0.0227,-0.0641 -0.006,-0.0413 -0.006,-0.10749 0,-0.0661 0.006,-0.10749 0.008,-0.0413 0.0227,-0.0641 0.0165,-0.0248 0.0413,-0.0331 0.0248,-0.008 0.0599,-0.008 h 0.83509 q 0.0351,0 0.0599,0.008 0.0248,0.008 0.0393,0.0331 0.0165,0.0227 0.0227,0.0641 0.008,0.0413 0.008,0.10749 0,0.0662 -0.008,0.10749 -0.006,0.0413 -0.0227,0.0641 -0.0145,0.0227 -0.0393,0.031 -0.0248,0.008 -0.0599,0.008 h -0.12402 l 0.35967,0.78548 0.35967,-0.78548 h -0.11162 q -0.0351,0 -0.06,-0.008 -0.0248,-0.008 -0.0413,-0.031 -0.0145,-0.0227 -0.0227,-0.0641 -0.006,-0.0413 -0.006,-0.10749 0,-0.0661 0.006,-0.10749 0.008,-0.0413 0.0227,-0.0641 0.0165,-0.0248 0.0413,-0.0331 0.0248,-0.008 0.06,-0.008 h 0.79375 q 0.0351,0 0.0599,0.008 0.0248,0.008 0.0393,0.0331 0.0165,0.0227 0.0227,0.0641 0.008,0.0413 0.008,0.10749 0,0.0662 -0.008,0.10749 -0.006,0.0413 -0.0227,0.0641 -0.0145,0.0227 -0.0393,0.031 -0.0248,0.008 -0.0599,0.008 h -0.1323 l -0.79168,1.60404 q -0.10749,0.21704 -0.2067,0.35553 -0.0972,0.14056 -0.21291,0.22324 -0.11369,0.0827 -0.25632,0.11783 -0.14056,0.0351 -0.33486,0.0413 -0.0599,0.002 -0.10129,-0.0413 -0.0393,-0.0434 -0.0475,-0.17157 -0.004,-0.0703 0,-0.11989 0.006,-0.0475 0.0207,-0.0765 0.0145,-0.0289 0.0351,-0.0434 0.0207,-0.0124 0.0496,-0.0145 0.12196,-0.006 0.20671,-0.0372 0.0868,-0.0289 0.15709,-0.0951 0.0724,-0.0661 0.1385,-0.17363 0.0661,-0.10749 0.15089,-0.26872 l -0.63252,-1.30018 z" />
            <path
               inkscape:connector-curvature="0"
               id="path993"
               style="font-style:normal;font-variant:normal;font-weight:bold;font-stretch:normal;font-family:'Courier Prime';-inkscape-font-specification:'Courier Prime';fill:#333333;fill-opacity:1;stroke-width:0.17876169"
               d="m 320.91657,159.23674 q -0.0227,0.0434 -0.0641,0.0641 -0.0413,0.0207 -0.11369,0.0207 -0.0868,0 -0.13229,-0.0351 -0.0434,-0.0351 -0.0331,-0.10129 l 0.1943,-1.12034 q 0.0165,-0.0827 0.10749,-0.0827 h 0.53537 q 0.0517,0 0.0682,0.0393 0.0165,0.0372 -0.0103,0.0909 z" />
          </g>
          <g
             id="g1017"
             transform="matrix(1.8126005,0,0,1.8126005,-271.44131,-147.97254)"
             style="font-style:normal;font-weight:normal;font-size:medium;line-height:1.25;font-family:sans-serif;letter-spacing:0px;word-spacing:0px;fill:#333333;fill-opacity:1;stroke:none;stroke-width:0.17876169">
            <path
               inkscape:connector-curvature="0"
               id="path995"
               style="font-style:normal;font-variant:normal;font-weight:bold;font-stretch:normal;font-family:'Courier Prime';-inkscape-font-specification:'Courier Prime';fill:#333333;fill-opacity:1;stroke-width:0.17876169"
               d="m 325.82997,157.74433 -0.5085,-0.51677 h -0.10748 q -0.0351,0 -0.06,-0.008 -0.0248,-0.008 -0.0413,-0.031 -0.0145,-0.0227 -0.0227,-0.0641 -0.006,-0.0413 -0.006,-0.10749 0,-0.0661 0.006,-0.10749 0.008,-0.0413 0.0227,-0.0641 0.0165,-0.0248 0.0413,-0.0331 0.0248,-0.008 0.06,-0.008 h 0.77307 q 0.0351,0 0.06,0.008 0.0248,0.008 0.0393,0.0331 0.0165,0.0227 0.0227,0.0641 0.008,0.0413 0.008,0.10749 0,0.0662 -0.008,0.10749 -0.006,0.0413 -0.0227,0.0641 -0.0145,0.0227 -0.0393,0.031 -0.0248,0.008 -0.06,0.008 h -0.0269 l 0.26459,0.27079 0.25011,-0.27079 h -0.0455 q -0.0351,0 -0.0599,-0.008 -0.0248,-0.008 -0.0413,-0.031 -0.0145,-0.0227 -0.0227,-0.0641 -0.006,-0.0413 -0.006,-0.10749 0,-0.0661 0.006,-0.10749 0.008,-0.0413 0.0227,-0.0641 0.0165,-0.0248 0.0413,-0.0331 0.0248,-0.008 0.0599,-0.008 h 0.73174 q 0.0351,0 0.0599,0.008 0.0248,0.008 0.0393,0.0331 0.0165,0.0227 0.0227,0.0641 0.008,0.0413 0.008,0.10749 0,0.0662 -0.008,0.10749 -0.006,0.0413 -0.0227,0.0641 -0.0145,0.0227 -0.0393,0.031 -0.0248,0.008 -0.0599,0.008 h -0.12195 l -0.49816,0.51883 0.53536,0.54364 h 0.10542 q 0.0351,0 0.0599,0.008 0.0248,0.008 0.0393,0.0331 0.0165,0.0227 0.0227,0.0641 0.008,0.0413 0.008,0.10749 0,0.0661 -0.008,0.10748 -0.006,0.0413 -0.0227,0.0641 -0.0145,0.0227 -0.0393,0.031 -0.0248,0.008 -0.0599,0.008 h -0.79375 q -0.0351,0 -0.0599,-0.008 -0.0248,-0.008 -0.0413,-0.031 -0.0145,-0.0227 -0.0227,-0.0641 -0.006,-0.0413 -0.006,-0.10748 0,-0.0661 0.006,-0.10749 0.008,-0.0413 0.0227,-0.0641 0.0165,-0.0248 0.0413,-0.0331 0.0248,-0.008 0.0599,-0.008 h 0.0289 l -0.27078,-0.27699 -0.25632,0.27699 h 0.0351 q 0.0351,0 0.06,0.008 0.0248,0.008 0.0393,0.0331 0.0165,0.0227 0.0227,0.0641 0.008,0.0413 0.008,0.10749 0,0.0661 -0.008,0.10748 -0.006,0.0413 -0.0227,0.0641 -0.0145,0.0227 -0.0393,0.031 -0.0248,0.008 -0.06,0.008 h -0.73174 q -0.0351,0 -0.0599,-0.008 -0.0248,-0.008 -0.0413,-0.031 -0.0145,-0.0227 -0.0227,-0.0641 -0.006,-0.0413 -0.006,-0.10748 0,-0.0661 0.006,-0.10749 0.008,-0.0413 0.0227,-0.0641 0.0165,-0.0248 0.0413,-0.0331 0.0248,-0.008 0.0599,-0.008 h 0.11163 z" />
            <path
               inkscape:connector-curvature="0"
               id="path997"
               style="font-style:normal;font-variant:normal;font-weight:bold;font-stretch:normal;font-family:'Courier Prime';-inkscape-font-specification:'Courier Prime';fill:#333333;fill-opacity:1;stroke-width:0.17876169"
               d="m 328.40139,159.5344 q -0.062,0.0351 -0.12816,-0.006 -0.0661,-0.0393 -0.11989,-0.11783 -0.0289,-0.0413 -0.0475,-0.0848 -0.0186,-0.0434 -0.0248,-0.0806 -0.006,-0.0372 0.002,-0.0662 0.008,-0.0289 0.0331,-0.0455 0.20051,-0.12609 0.35554,-0.27079 0.15503,-0.14262 0.26045,-0.31005 0.10748,-0.1695 0.16329,-0.36381 0.0558,-0.19637 0.0558,-0.42374 0,-0.22738 -0.0558,-0.42168 -0.0558,-0.19637 -0.16329,-0.36381 -0.10542,-0.16949 -0.26045,-0.31212 -0.15503,-0.14469 -0.35554,-0.27079 -0.0248,-0.0145 -0.0331,-0.0434 -0.008,-0.031 -0.002,-0.0682 0.006,-0.0372 0.0248,-0.0806 0.0186,-0.0434 0.0475,-0.0848 0.0537,-0.0786 0.11989,-0.11782 0.0661,-0.0413 0.12816,-0.006 0.19637,0.11162 0.38654,0.27698 0.19223,0.1633 0.34106,0.38447 0.1509,0.21911 0.24185,0.4961 0.093,0.27698 0.093,0.61185 0,0.33486 -0.093,0.61185 -0.0909,0.27698 -0.24185,0.49609 -0.14883,0.22117 -0.34106,0.38447 -0.19017,0.16537 -0.38654,0.27699 z" />
          </g>
        </g>
      </g>
    </g>
    <rect
       y="26.180059"
       x="458.48511"
       height="85.800591"
       width="217.90326"
       id="rect2423"
       style="opacity:1;fill:#f9f9f9;fill-opacity:1;stroke:none;stroke-width:0.5;stroke-linecap:butt;stroke-miterlimit:4;stroke-dasharray:none;stroke-dashoffset:0;stroke-opacity:1" />
    <text
       id="text2431"
       y="75.665451"
       x="472.66397"
       style="font-style:normal;font-weight:normal;font-size:39.49227142px;line-height:1.25;font-family:sans-serif;letter-spacing:0px;word-spacing:0px;fill:#000000;fill-opacity:1;stroke:none;stroke-width:0.26458335"
       xml:space="preserve"><tspan
         style="font-style:normal;font-variant:normal;font-weight:bold;font-stretch:normal;font-family:'Courier Prime';-inkscape-font-specification:'Courier Prime';stroke-width:0.26458335"
         y="75.665451"
         x="472.66397"
         id="tspan2429"
         sodipodi:role="line"><tspan
           id="tspan2425"
           style="fill:#333333;stroke-width:0.26458335">auto</tspan><tspan
           id="tspan2427"
           style="fill:#ff5555;stroke-width:0.26458335">diff</tspan></tspan></text>
    <text
       id="text2437"
       y="101.679"
       x="480.42032"
       style="font-style:normal;font-variant:normal;font-weight:normal;font-stretch:normal;font-size:6.21115589px;line-height:1.25;font-family:'Courier Prime Sans';-inkscape-font-specification:'Courier Prime Sans';letter-spacing:0px;word-spacing:0px;fill:#000000;fill-opacity:1;stroke:none;stroke-width:0.26458332"
       xml:space="preserve"><tspan
         style="font-style:normal;font-variant:normal;font-weight:normal;font-stretch:normal;font-family:'Courier Prime Sans';-inkscape-font-specification:'Courier Prime Sans';fill:#999999;stroke-width:0.26458332"
         y="101.679"
         x="480.42032"
         id="tspan2435"
         sodipodi:role="line"><tspan
   id="tspan2433"
   style="font-weight:bold;stroke-width:0.26458332">automatic differentiation</tspan> as simple as it gets!</tspan></text>
    <g
       transform="matrix(1.2735696,0,0,1.2735696,160.57973,-75.196419)"
       id="g2457"
       style="stroke-width:0.78519464">
      <path
         inkscape:connector-curvature="0"
         id="path2443"
         style="font-style:normal;font-variant:normal;font-weight:bold;font-stretch:normal;font-size:medium;line-height:1.25;font-family:'Courier Prime';-inkscape-font-specification:'Courier Prime';letter-spacing:0px;word-spacing:0px;fill:#333333;fill-opacity:1;stroke:none;stroke-width:0.2077494"
         d="m 269.37713,129.03911 q -0.0636,0 -0.10858,-0.0145 -0.045,-0.0145 -0.0749,-0.0562 -0.0263,-0.0412 -0.0411,-0.11619 -0.0109,-0.0749 -0.0109,-0.19483 0,-0.11982 0.0109,-0.19484 0.0145,-0.0749 0.0411,-0.11619 0.0299,-0.045 0.0749,-0.06 0.045,-0.0145 0.10858,-0.0145 h 1.51368 q 0.0636,0 0.10876,0.0145 0.0449,0.0145 0.0712,0.06 0.0299,0.0411 0.0411,0.11619 0.0145,0.0749 0.0145,0.19484 0,0.11981 -0.0145,0.19483 -0.0109,0.0749 -0.0411,0.11619 -0.0263,0.0411 -0.0712,0.0562 -0.045,0.0145 -0.10876,0.0145 h -0.2248 l 0.65194,1.42376 0.65194,-1.42376 h -0.20234 q -0.0636,0 -0.10858,-0.0145 -0.045,-0.0145 -0.0749,-0.0562 -0.0263,-0.0412 -0.0411,-0.11619 -0.0109,-0.0749 -0.0109,-0.19483 0,-0.11982 0.0109,-0.19484 0.0145,-0.0749 0.0411,-0.11619 0.0299,-0.045 0.0749,-0.06 0.045,-0.0145 0.10858,-0.0145 h 1.43875 q 0.0636,0 0.10858,0.0145 0.0449,0.0145 0.0712,0.06 0.0299,0.0411 0.0412,0.11619 0.0145,0.0749 0.0145,0.19484 0,0.11981 -0.0145,0.19483 -0.0109,0.0749 -0.0412,0.11619 -0.0263,0.0411 -0.0712,0.0562 -0.045,0.0145 -0.10858,0.0145 h -0.23979 l -1.435,2.90747 q -0.19483,0.39342 -0.37468,0.64445 -0.176,0.25478 -0.3859,0.40464 -0.20608,0.14991 -0.46461,0.21356 -0.25478,0.0636 -0.60697,0.0749 -0.10857,0.004 -0.18359,-0.0749 -0.0712,-0.0787 -0.0861,-0.31097 -0.007,-0.12742 0,-0.21731 0.0109,-0.0861 0.0375,-0.13866 0.0263,-0.0524 0.0636,-0.0787 0.0375,-0.0225 0.0899,-0.0263 0.22107,-0.0109 0.37469,-0.0674 0.15733,-0.0524 0.28474,-0.17238 0.13105,-0.11981 0.25104,-0.31474 0.11982,-0.19482 0.27351,-0.48706 l -1.14651,-2.35671 z" />
      <path
         inkscape:connector-curvature="0"
         id="path2445"
         style="font-style:normal;font-variant:normal;font-weight:bold;font-stretch:normal;font-size:medium;line-height:1.25;font-family:'Courier Prime';-inkscape-font-specification:'Courier Prime';letter-spacing:0px;word-spacing:0px;fill:#333333;fill-opacity:1;stroke:none;stroke-width:0.2077494"
         d="m 280.12483,128.24075 q 0.0636,0 0.10858,0.0187 0.045,0.0145 0.0712,0.06 0.0299,0.045 0.0412,0.12742 0.0145,0.0825 0.0145,0.21732 0,0.13485 -0.0145,0.21731 -0.0109,0.0825 -0.0412,0.12743 -0.0263,0.045 -0.0712,0.06 -0.0449,0.0145 -0.10858,0.0145 h -2.85502 q -0.0636,0 -0.10858,-0.0145 -0.0449,-0.0145 -0.0749,-0.06 -0.0263,-0.045 -0.0411,-0.12743 -0.0109,-0.0825 -0.0109,-0.21731 0,-0.13486 0.0109,-0.21732 0.0145,-0.0825 0.0411,-0.12742 0.0299,-0.045 0.0749,-0.06 0.045,-0.0187 0.10858,-0.0187 z m 0,1.71601 q 0.0636,0 0.10858,0.0187 0.045,0.0145 0.0712,0.06 0.0299,0.045 0.0412,0.12742 0.0145,0.0825 0.0145,0.21731 0,0.13486 -0.0145,0.21732 -0.0109,0.0825 -0.0412,0.12742 -0.0263,0.045 -0.0712,0.06 -0.0449,0.0145 -0.10858,0.0145 h -2.85502 q -0.0636,0 -0.10858,-0.0145 -0.0449,-0.0145 -0.0749,-0.06 -0.0263,-0.045 -0.0411,-0.12742 -0.0109,-0.0825 -0.0109,-0.21732 0,-0.13485 0.0109,-0.21731 0.0145,-0.0825 0.0411,-0.12742 0.0299,-0.045 0.0749,-0.06 0.045,-0.0187 0.10858,-0.0187 z" />
      <g
         style="font-style:normal;font-weight:normal;font-size:medium;line-height:1.25;font-family:sans-serif;letter-spacing:0px;word-spacing:0px;fill:#333333;fill-opacity:1;stroke:none;stroke-width:0.11461401"
         transform="matrix(1.8126005,0,0,1.8126005,-219.9823,-148.24403)"
         id="g2455">
        <path
           inkscape:connector-curvature="0"
           d="m 278.52624,154.03779 v -0.91778 h -0.37827 q -0.0351,0 -0.0599,-0.0103 -0.0248,-0.0103 -0.0413,-0.0351 -0.0145,-0.0248 -0.0227,-0.0662 -0.006,-0.0434 -0.006,-0.10955 0,-0.0661 0.006,-0.10956 0.008,-0.0434 0.0227,-0.0682 0.0165,-0.0248 0.0413,-0.0351 0.0248,-0.0103 0.0599,-0.0103 h 0.37827 v -0.1509 q 0,-0.38861 0.18811,-0.58704 0.1881,-0.19844 0.54983,-0.19844 0.14677,0 0.30179,0.0269 0.1571,0.0269 0.3266,0.091 0.0351,0.0124 0.0579,0.0331 0.0248,0.0207 0.0351,0.0538 0.0124,0.031 0.008,0.0765 -0.002,0.0455 -0.0186,0.10955 -0.0165,0.062 -0.0393,0.0992 -0.0207,0.0372 -0.0475,0.0537 -0.0269,0.0165 -0.0579,0.0165 -0.0289,0 -0.062,-0.0103 -0.1323,-0.0413 -0.24392,-0.06 -0.10955,-0.0207 -0.21497,-0.0207 -0.12816,0 -0.19844,0.0827 -0.0682,0.0806 -0.0682,0.26045 v 0.12403 h 0.64285 q 0.0351,0 0.06,0.0103 0.0248,0.0103 0.0393,0.0351 0.0165,0.0248 0.0227,0.0682 0.008,0.0434 0.008,0.10956 0,0.0661 -0.008,0.10955 -0.006,0.0413 -0.0227,0.0662 -0.0145,0.0248 -0.0393,0.0351 -0.0248,0.0103 -0.06,0.0103 h -0.64285 v 0.91778 h 0.58084 q 0.0351,0 0.06,0.008 0.0248,0.008 0.0393,0.0331 0.0165,0.0227 0.0227,0.0641 0.008,0.0413 0.008,0.10748 0,0.0662 -0.008,0.10749 -0.006,0.0413 -0.0227,0.0641 -0.0145,0.0227 -0.0393,0.031 -0.0248,0.008 -0.06,0.008 h -1.47588 q -0.0351,0 -0.0599,-0.008 -0.0248,-0.008 -0.0413,-0.031 -0.0145,-0.0227 -0.0227,-0.0641 -0.006,-0.0413 -0.006,-0.10749 0,-0.0661 0.006,-0.10748 0.008,-0.0414 0.0227,-0.0641 0.0165,-0.0248 0.0413,-0.0331 0.0248,-0.008 0.0599,-0.008 z"
           style="font-style:normal;font-variant:normal;font-weight:bold;font-stretch:normal;font-family:'Courier Prime';-inkscape-font-specification:'Courier Prime';fill:#333333;fill-opacity:1;stroke-width:0.11461401"
           id="path2447" />
        <path
           inkscape:connector-curvature="0"
           d="m 281.8046,155.28215 q -0.19637,-0.11162 -0.38861,-0.27698 -0.19017,-0.1633 -0.34106,-0.38447 -0.14883,-0.21911 -0.24185,-0.4961 -0.091,-0.27698 -0.091,-0.61185 0,-0.33486 0.091,-0.61185 0.093,-0.27698 0.24185,-0.49609 0.15089,-0.22117 0.34106,-0.38447 0.19224,-0.16537 0.38861,-0.27699 0.062,-0.0351 0.12816,0.006 0.0661,0.0393 0.11988,0.11783 0.0269,0.0413 0.0455,0.0848 0.0186,0.0434 0.0248,0.0806 0.006,0.0372 -0.002,0.0682 -0.006,0.0289 -0.031,0.0434 -0.2005,0.12609 -0.35553,0.27079 -0.15503,0.14262 -0.26252,0.31212 -0.10542,0.16743 -0.16123,0.3638 -0.0558,0.19431 -0.0558,0.42168 0,0.22738 0.0558,0.42375 0.0558,0.1943 0.16123,0.3638 0.10749,0.16743 0.26252,0.31006 0.15503,0.14469 0.35553,0.27079 0.0248,0.0165 0.031,0.0455 0.008,0.0289 0.002,0.0661 -0.006,0.0372 -0.0248,0.0806 -0.0186,0.0434 -0.0455,0.0848 -0.0537,0.0786 -0.11988,0.11782 -0.0661,0.0413 -0.12816,0.006 z"
           style="font-style:normal;font-variant:normal;font-weight:bold;font-stretch:normal;font-family:'Courier Prime';-inkscape-font-specification:'Courier Prime';fill:#333333;fill-opacity:1;stroke-width:0.11461401"
           id="path2449" />
        <path
           inkscape:connector-curvature="0"
           d="m 283.66082,153.49208 -0.5085,-0.51676 h -0.10749 q -0.0351,0 -0.0599,-0.008 -0.0248,-0.008 -0.0413,-0.031 -0.0145,-0.0227 -0.0227,-0.0641 -0.006,-0.0413 -0.006,-0.10749 0,-0.0661 0.006,-0.10749 0.008,-0.0413 0.0227,-0.0641 0.0165,-0.0248 0.0413,-0.0331 0.0248,-0.008 0.0599,-0.008 h 0.77308 q 0.0351,0 0.06,0.008 0.0248,0.008 0.0393,0.0331 0.0165,0.0227 0.0227,0.0641 0.008,0.0413 0.008,0.10749 0,0.0661 -0.008,0.10749 -0.006,0.0413 -0.0227,0.0641 -0.0145,0.0227 -0.0393,0.031 -0.0248,0.008 -0.06,0.008 h -0.0269 l 0.26458,0.27078 0.25012,-0.27078 h -0.0455 q -0.0351,0 -0.0599,-0.008 -0.0248,-0.008 -0.0413,-0.031 -0.0145,-0.0227 -0.0227,-0.0641 -0.006,-0.0413 -0.006,-0.10749 0,-0.0661 0.006,-0.10749 0.008,-0.0413 0.0227,-0.0641 0.0165,-0.0248 0.0413,-0.0331 0.0248,-0.008 0.0599,-0.008 h 0.73174 q 0.0351,0 0.0599,0.008 0.0248,0.008 0.0393,0.0331 0.0165,0.0227 0.0227,0.0641 0.008,0.0413 0.008,0.10749 0,0.0661 -0.008,0.10749 -0.006,0.0413 -0.0227,0.0641 -0.0145,0.0227 -0.0393,0.031 -0.0248,0.008 -0.0599,0.008 h -0.12196 l -0.49816,0.51883 0.53537,0.54364 h 0.10542 q 0.0351,0 0.0599,0.008 0.0248,0.008 0.0393,0.0331 0.0165,0.0227 0.0227,0.0641 0.008,0.0413 0.008,0.10748 0,0.0662 -0.008,0.10749 -0.006,0.0413 -0.0227,0.0641 -0.0145,0.0227 -0.0393,0.031 -0.0248,0.008 -0.0599,0.008 h -0.79375 q -0.0351,0 -0.0599,-0.008 -0.0248,-0.008 -0.0413,-0.031 -0.0145,-0.0227 -0.0227,-0.0641 -0.006,-0.0413 -0.006,-0.10749 0,-0.0661 0.006,-0.10748 0.008,-0.0414 0.0227,-0.0641 0.0165,-0.0248 0.0413,-0.0331 0.0248,-0.008 0.0599,-0.008 h 0.0289 l -0.27079,-0.27699 -0.25631,0.27699 h 0.0351 q 0.0351,0 0.0599,0.008 0.0248,0.008 0.0393,0.0331 0.0165,0.0227 0.0227,0.0641 0.008,0.0413 0.008,0.10748 0,0.0662 -0.008,0.10749 -0.006,0.0413 -0.0227,0.0641 -0.0145,0.0227 -0.0393,0.031 -0.0248,0.008 -0.0599,0.008 h -0.73174 q -0.0351,0 -0.0599,-0.008 -0.0248,-0.008 -0.0413,-0.031 -0.0145,-0.0227 -0.0227,-0.0641 -0.006,-0.0413 -0.006,-0.10749 0,-0.0661 0.006,-0.10748 0.008,-0.0414 0.0227,-0.0641 0.0165,-0.0248 0.0413,-0.0331 0.0248,-0.008 0.0599,-0.008 h 0.11162 z"
           style="font-style:normal;font-variant:normal;font-weight:bold;font-stretch:normal;font-family:'Courier Prime';-inkscape-font-specification:'Courier Prime';fill:#333333;fill-opacity:1;stroke-width:0.11461401"
           id="path2451" />
        <path
           inkscape:connector-curvature="0"
           d="m 286.23224,155.28215 q -0.062,0.0351 -0.12816,-0.006 -0.0661,-0.0393 -0.11989,-0.11782 -0.0289,-0.0413 -0.0475,-0.0848 -0.0186,-0.0434 -0.0248,-0.0806 -0.006,-0.0372 0.002,-0.0661 0.008,-0.0289 0.0331,-0.0455 0.20051,-0.1261 0.35554,-0.27079 0.15502,-0.14263 0.26044,-0.31006 0.10749,-0.1695 0.1633,-0.3638 0.0558,-0.19637 0.0558,-0.42375 0,-0.22737 -0.0558,-0.42168 -0.0558,-0.19637 -0.1633,-0.3638 -0.10542,-0.1695 -0.26044,-0.31212 -0.15503,-0.1447 -0.35554,-0.27079 -0.0248,-0.0145 -0.0331,-0.0434 -0.008,-0.031 -0.002,-0.0682 0.006,-0.0372 0.0248,-0.0806 0.0186,-0.0434 0.0475,-0.0848 0.0537,-0.0786 0.11989,-0.11783 0.0661,-0.0413 0.12816,-0.006 0.19637,0.11162 0.38653,0.27699 0.19224,0.1633 0.34107,0.38447 0.15089,0.21911 0.24184,0.49609 0.093,0.27699 0.093,0.61185 0,0.33487 -0.093,0.61185 -0.091,0.27699 -0.24184,0.4961 -0.14883,0.22117 -0.34107,0.38447 -0.19016,0.16536 -0.38653,0.27698 z"
           style="font-style:normal;font-variant:normal;font-weight:bold;font-stretch:normal;font-family:'Courier Prime';-inkscape-font-specification:'Courier Prime';fill:#333333;fill-opacity:1;stroke-width:0.11461401"
           id="path2453" />
      </g>
    </g>
    <g
       transform="matrix(1.2735696,0,0,1.2735696,243.68947,-85.360697)"
       id="g2493"
       style="stroke-width:0.78519464">
      <g
         style="font-style:normal;font-weight:normal;font-size:medium;line-height:1.25;font-family:sans-serif;letter-spacing:0px;word-spacing:0px;fill:#333333;fill-opacity:1;stroke:none;stroke-width:0.11461401"
         id="g2467"
         transform="matrix(1.8126005,0,0,1.8126005,-264.63142,-147.97254)">
        <path
           d="m 289.17484,158.29003 q 0.0351,0 0.0599,0.008 0.0248,0.008 0.0393,0.031 0.0165,0.0227 0.0227,0.0641 0.008,0.0413 0.008,0.10749 0,0.0661 -0.008,0.10749 -0.006,0.0413 -0.0227,0.0661 -0.0145,0.0227 -0.0393,0.031 -0.0248,0.008 -0.0599,0.008 h -0.48369 q -0.0703,0 -0.10129,-0.0289 -0.0289,-0.031 -0.0289,-0.10129 v -0.14263 q -0.10749,0.15297 -0.26666,0.23565 -0.15916,0.0827 -0.35966,0.0827 -0.20464,0 -0.37001,-0.0724 -0.16329,-0.0744 -0.28112,-0.20257 -0.11575,-0.13022 -0.17776,-0.30799 -0.062,-0.17777 -0.062,-0.38654 0,-0.20877 0.062,-0.38654 0.062,-0.17777 0.17776,-0.30592 0.11783,-0.13023 0.28112,-0.20257 0.16537,-0.0744 0.37001,-0.0744 0.16329,0 0.29972,0.062 0.13849,0.062 0.24391,0.1757 v -0.63252 h -0.40721 q -0.0351,0 -0.0599,-0.008 -0.0248,-0.008 -0.0413,-0.031 -0.0145,-0.0227 -0.0227,-0.0641 -0.006,-0.0413 -0.006,-0.10749 0,-0.0661 0.006,-0.10748 0.008,-0.0413 0.0227,-0.0641 0.0165,-0.0248 0.0413,-0.0331 0.0248,-0.008 0.0599,-0.008 h 0.79375 q 0.0703,0 0.0992,0.031 0.031,0.0289 0.031,0.0992 v 2.15801 z m -0.68213,-0.50023 q 0,-0.12609 -0.0393,-0.21911 -0.0372,-0.0951 -0.10335,-0.15709 -0.0641,-0.062 -0.1509,-0.093 -0.0847,-0.031 -0.1819,-0.031 -0.19017,0 -0.30593,0.12816 -0.11368,0.12816 -0.11368,0.37207 0,0.24391 0.11368,0.37207 0.11576,0.12816 0.30593,0.12816 0.0971,0 0.1819,-0.031 0.0868,-0.031 0.1509,-0.093 0.0661,-0.062 0.10335,-0.15503 0.0393,-0.0951 0.0393,-0.22118 z"
           style="font-style:normal;font-variant:normal;font-weight:bold;font-stretch:normal;font-family:'Courier Prime';-inkscape-font-specification:'Courier Prime';fill:#333333;fill-opacity:1;stroke-width:0.11461401"
           id="path2459"
           inkscape:connector-curvature="0" />
        <path
           d="m 289.59445,157.22756 q -0.0351,0 -0.0599,-0.008 -0.0248,-0.008 -0.0413,-0.031 -0.0145,-0.0227 -0.0227,-0.0641 -0.006,-0.0413 -0.006,-0.10749 0,-0.0661 0.006,-0.10749 0.008,-0.0413 0.0227,-0.0641 0.0165,-0.0248 0.0413,-0.0331 0.0248,-0.008 0.0599,-0.008 h 0.83509 q 0.0351,0 0.06,0.008 0.0248,0.008 0.0393,0.0331 0.0165,0.0227 0.0227,0.0641 0.008,0.0413 0.008,0.10749 0,0.0662 -0.008,0.10749 -0.006,0.0413 -0.0227,0.0641 -0.0145,0.0227 -0.0393,0.031 -0.0248,0.008 -0.06,0.008 h -0.12402 l 0.35967,0.78548 0.35967,-0.78548 h -0.11162 q -0.0351,0 -0.0599,-0.008 -0.0248,-0.008 -0.0413,-0.031 -0.0145,-0.0227 -0.0227,-0.0641 -0.006,-0.0413 -0.006,-0.10749 0,-0.0661 0.006,-0.10749 0.008,-0.0413 0.0227,-0.0641 0.0165,-0.0248 0.0413,-0.0331 0.0248,-0.008 0.0599,-0.008 h 0.79375 q 0.0351,0 0.0599,0.008 0.0248,0.008 0.0393,0.0331 0.0165,0.0227 0.0227,0.0641 0.008,0.0413 0.008,0.10749 0,0.0662 -0.008,0.10749 -0.006,0.0413 -0.0227,0.0641 -0.0145,0.0227 -0.0393,0.031 -0.0248,0.008 -0.0599,0.008 h -0.1323 l -0.79168,1.60404 q -0.10749,0.21704 -0.2067,0.35553 -0.0972,0.14056 -0.21291,0.22324 -0.11369,0.0827 -0.25632,0.11783 -0.14056,0.0351 -0.33486,0.0413 -0.0599,0.002 -0.10129,-0.0413 -0.0393,-0.0434 -0.0475,-0.17157 -0.004,-0.0703 0,-0.11989 0.006,-0.0475 0.0207,-0.0765 0.0145,-0.0289 0.0351,-0.0434 0.0207,-0.0124 0.0496,-0.0145 0.12196,-0.006 0.20671,-0.0372 0.0868,-0.0289 0.15709,-0.0951 0.0724,-0.0661 0.1385,-0.17363 0.0661,-0.10749 0.15089,-0.26872 l -0.63252,-1.30018 z"
           style="font-style:normal;font-variant:normal;font-weight:bold;font-stretch:normal;font-family:'Courier Prime';-inkscape-font-specification:'Courier Prime';fill:#333333;fill-opacity:1;stroke-width:0.11461401"
           id="path2461"
           inkscape:connector-curvature="0" />
        <path
           d="m 294.25153,158.29003 q 0.0351,0 0.06,0.008 0.0248,0.008 0.0393,0.031 0.0165,0.0227 0.0227,0.0641 0.008,0.0413 0.008,0.10749 0,0.0661 -0.008,0.10749 -0.006,0.0413 -0.0227,0.0661 -0.0145,0.0227 -0.0393,0.031 -0.0248,0.008 -0.06,0.008 h -0.48369 q -0.0703,0 -0.10128,-0.0289 -0.0289,-0.031 -0.0289,-0.10129 v -0.14263 q -0.10749,0.15297 -0.26665,0.23565 -0.15917,0.0827 -0.35967,0.0827 -0.20464,0 -0.37,-0.0724 -0.1633,-0.0744 -0.28112,-0.20257 -0.11576,-0.13022 -0.17777,-0.30799 -0.062,-0.17777 -0.062,-0.38654 0,-0.20877 0.062,-0.38654 0.062,-0.17777 0.17777,-0.30592 0.11782,-0.13023 0.28112,-0.20257 0.16536,-0.0744 0.37,-0.0744 0.1633,0 0.29972,0.062 0.1385,0.062 0.24392,0.1757 v -0.63252 h -0.40721 q -0.0351,0 -0.06,-0.008 -0.0248,-0.008 -0.0413,-0.031 -0.0145,-0.0227 -0.0227,-0.0641 -0.006,-0.0413 -0.006,-0.10749 0,-0.0661 0.006,-0.10748 0.008,-0.0413 0.0227,-0.0641 0.0165,-0.0248 0.0413,-0.0331 0.0248,-0.008 0.06,-0.008 h 0.79375 q 0.0703,0 0.0992,0.031 0.031,0.0289 0.031,0.0992 v 2.15801 z m -0.68213,-0.50023 q 0,-0.12609 -0.0393,-0.21911 -0.0372,-0.0951 -0.10335,-0.15709 -0.0641,-0.062 -0.1509,-0.093 -0.0847,-0.031 -0.1819,-0.031 -0.19017,0 -0.30592,0.12816 -0.11369,0.12816 -0.11369,0.37207 0,0.24391 0.11369,0.37207 0.11575,0.12816 0.30592,0.12816 0.0971,0 0.1819,-0.031 0.0868,-0.031 0.1509,-0.093 0.0661,-0.062 0.10335,-0.15503 0.0393,-0.0951 0.0393,-0.22118 z"
           style="font-style:normal;font-variant:normal;font-weight:bold;font-stretch:normal;font-family:'Courier Prime';-inkscape-font-specification:'Courier Prime';fill:#333333;fill-opacity:1;stroke-width:0.11461401"
           id="path2463"
           inkscape:connector-curvature="0" />
        <path
           d="m 295.36981,157.74433 -0.50849,-0.51677 h -0.10749 q -0.0351,0 -0.06,-0.008 -0.0248,-0.008 -0.0413,-0.031 -0.0145,-0.0227 -0.0227,-0.0641 -0.006,-0.0413 -0.006,-0.10749 0,-0.0661 0.006,-0.10749 0.008,-0.0413 0.0227,-0.0641 0.0165,-0.0248 0.0413,-0.0331 0.0248,-0.008 0.06,-0.008 h 0.77308 q 0.0351,0 0.0599,0.008 0.0248,0.008 0.0393,0.0331 0.0165,0.0227 0.0227,0.0641 0.008,0.0413 0.008,0.10749 0,0.0662 -0.008,0.10749 -0.006,0.0413 -0.0227,0.0641 -0.0145,0.0227 -0.0393,0.031 -0.0248,0.008 -0.0599,0.008 h -0.0269 l 0.26458,0.27079 0.25011,-0.27079 h -0.0455 q -0.0351,0 -0.06,-0.008 -0.0248,-0.008 -0.0413,-0.031 -0.0145,-0.0227 -0.0227,-0.0641 -0.006,-0.0413 -0.006,-0.10749 0,-0.0661 0.006,-0.10749 0.008,-0.0413 0.0227,-0.0641 0.0165,-0.0248 0.0413,-0.0331 0.0248,-0.008 0.06,-0.008 h 0.73174 q 0.0351,0 0.0599,0.008 0.0248,0.008 0.0393,0.0331 0.0165,0.0227 0.0227,0.0641 0.008,0.0413 0.008,0.10749 0,0.0662 -0.008,0.10749 -0.006,0.0413 -0.0227,0.0641 -0.0145,0.0227 -0.0393,0.031 -0.0248,0.008 -0.0599,0.008 h -0.12196 l -0.49816,0.51883 0.53537,0.54364 h 0.10542 q 0.0351,0 0.0599,0.008 0.0248,0.008 0.0393,0.0331 0.0165,0.0227 0.0227,0.0641 0.008,0.0413 0.008,0.10749 0,0.0661 -0.008,0.10748 -0.006,0.0413 -0.0227,0.0641 -0.0145,0.0227 -0.0393,0.031 -0.0248,0.008 -0.0599,0.008 h -0.79375 q -0.0351,0 -0.0599,-0.008 -0.0248,-0.008 -0.0413,-0.031 -0.0145,-0.0227 -0.0227,-0.0641 -0.006,-0.0413 -0.006,-0.10748 0,-0.0661 0.006,-0.10749 0.008,-0.0413 0.0227,-0.0641 0.0165,-0.0248 0.0413,-0.0331 0.0248,-0.008 0.0599,-0.008 h 0.0289 l -0.27079,-0.27699 -0.25631,0.27699 h 0.0351 q 0.0351,0 0.0599,0.008 0.0248,0.008 0.0393,0.0331 0.0165,0.0227 0.0227,0.0641 0.008,0.0413 0.008,0.10749 0,0.0661 -0.008,0.10748 -0.006,0.0413 -0.0227,0.0641 -0.0145,0.0227 -0.0393,0.031 -0.0248,0.008 -0.0599,0.008 h -0.73174 q -0.0351,0 -0.06,-0.008 -0.0248,-0.008 -0.0413,-0.031 -0.0145,-0.0227 -0.0227,-0.0641 -0.006,-0.0413 -0.006,-0.10748 0,-0.0661 0.006,-0.10749 0.008,-0.0413 0.0227,-0.0641 0.0165,-0.0248 0.0413,-0.0331 0.0248,-0.008 0.06,-0.008 h 0.11162 z"
           style="font-style:normal;font-variant:normal;font-weight:bold;font-stretch:normal;font-family:'Courier Prime';-inkscape-font-specification:'Courier Prime';fill:#333333;fill-opacity:1;stroke-width:0.11461401"
           id="path2465"
           inkscape:connector-curvature="0" />
      </g>
      <path
         inkscape:connector-curvature="0"
         id="path2469"
         style="font-style:normal;font-variant:normal;font-weight:bold;font-stretch:normal;font-size:medium;line-height:1.25;font-family:'Courier Prime';-inkscape-font-specification:'Courier Prime';letter-spacing:0px;word-spacing:0px;fill:#333333;fill-opacity:1;stroke:none;stroke-width:0.2077494"
         d="m 280.12502,136.25012 q 0.0636,0 0.10857,0.0187 0.045,0.0145 0.0712,0.06 0.0299,0.045 0.0411,0.12742 0.0145,0.0825 0.0145,0.21731 0,0.13486 -0.0145,0.21732 -0.0109,0.0825 -0.0411,0.12742 -0.0263,0.045 -0.0712,0.06 -0.0449,0.0145 -0.10857,0.0145 h -2.85501 q -0.0636,0 -0.10876,-0.0145 -0.045,-0.0145 -0.0749,-0.06 -0.0263,-0.045 -0.0412,-0.12742 -0.0109,-0.0825 -0.0109,-0.21732 0,-0.13485 0.0109,-0.21731 0.0145,-0.0825 0.0412,-0.12742 0.0299,-0.045 0.0749,-0.06 0.0449,-0.0187 0.10876,-0.0187 z m 0,1.71602 q 0.0636,0 0.10857,0.0187 0.045,0.0145 0.0712,0.06 0.0299,0.045 0.0411,0.12743 0.0145,0.0825 0.0145,0.21729 0,0.13486 -0.0145,0.21731 -0.0109,0.0825 -0.0411,0.12743 -0.0263,0.045 -0.0712,0.06 -0.0449,0.0145 -0.10857,0.0145 h -2.85501 q -0.0636,0 -0.10876,-0.0145 -0.045,-0.0145 -0.0749,-0.06 -0.0263,-0.045 -0.0412,-0.12743 -0.0109,-0.0825 -0.0109,-0.21731 0,-0.13486 0.0109,-0.21729 0.0145,-0.0825 0.0412,-0.12743 0.0299,-0.045 0.0749,-0.06 0.0449,-0.0187 0.10876,-0.0187 z" />
      <g
         style="font-style:normal;font-weight:normal;font-size:medium;line-height:1.25;font-family:sans-serif;letter-spacing:0px;word-spacing:0px;fill:#333333;fill-opacity:1;stroke:none;stroke-width:0.11461401"
         id="g2485"
         transform="matrix(1.8126005,0,0,1.8126005,-268.54959,-147.97254)">
        <path
           d="m 306.76343,158.72204 q 0,0.19844 -0.0599,0.35554 -0.0579,0.15709 -0.17777,0.26665 -0.11782,0.11162 -0.29766,0.1695 -0.17983,0.0579 -0.42374,0.0579 -0.1509,0 -0.33693,-0.031 -0.18604,-0.031 -0.39274,-0.091 -0.0724,-0.0227 -0.091,-0.0868 -0.0186,-0.0641 0.0207,-0.19223 0.0186,-0.062 0.0413,-0.0992 0.0227,-0.0372 0.0475,-0.0558 0.0269,-0.0165 0.0558,-0.0186 0.0289,0 0.062,0.008 0.1447,0.0413 0.29559,0.0682 0.15296,0.0289 0.27699,0.0289 0.25011,0 0.35553,-0.10748 0.10749,-0.10542 0.10749,-0.3142 v -0.22117 q -0.10542,0.11369 -0.24391,0.1757 -0.13643,0.062 -0.29973,0.062 -0.20464,0 -0.37,-0.0724 -0.1633,-0.0744 -0.28112,-0.20257 -0.11576,-0.13022 -0.17777,-0.30799 -0.062,-0.17777 -0.062,-0.38654 0,-0.20877 0.062,-0.38654 0.062,-0.17777 0.17777,-0.30592 0.11782,-0.13023 0.28112,-0.20258 0.16536,-0.0744 0.37,-0.0744 0.20051,0 0.35967,0.0827 0.15916,0.0827 0.26665,0.23771 v -0.14469 q 0,-0.0703 0.0289,-0.0992 0.031,-0.031 0.10128,-0.031 h 0.4837 q 0.0351,0 0.0599,0.008 0.0248,0.008 0.0393,0.0331 0.0165,0.0227 0.0227,0.0641 0.008,0.0413 0.008,0.10749 0,0.0662 -0.008,0.10749 -0.006,0.0413 -0.0227,0.0641 -0.0145,0.0227 -0.0393,0.031 -0.0248,0.008 -0.0599,0.008 h -0.17984 z m -0.50229,-0.99425 q 0,-0.12609 -0.0393,-0.21911 -0.0372,-0.0951 -0.10335,-0.1571 -0.0641,-0.062 -0.15089,-0.093 -0.0847,-0.031 -0.18191,-0.031 -0.19017,0 -0.30592,0.12816 -0.11369,0.12816 -0.11369,0.37207 0,0.24391 0.11369,0.37207 0.11575,0.12816 0.30592,0.12816 0.0972,0 0.18191,-0.031 0.0868,-0.031 0.15089,-0.093 0.0661,-0.062 0.10335,-0.15503 0.0393,-0.0951 0.0393,-0.22117 z"
           style="font-style:normal;font-variant:normal;font-weight:bold;font-stretch:normal;font-family:'Courier Prime';-inkscape-font-specification:'Courier Prime';fill:#333333;fill-opacity:1;stroke-width:0.11461401"
           id="path2471"
           inkscape:connector-curvature="0" />
        <path
           d="m 307.84657,157.22756 h -0.24185 q -0.0351,0 -0.0599,-0.008 -0.0248,-0.008 -0.0413,-0.031 -0.0145,-0.0227 -0.0227,-0.0641 -0.006,-0.0413 -0.006,-0.10749 0,-0.0661 0.006,-0.10749 0.008,-0.0413 0.0227,-0.0641 0.0165,-0.0248 0.0413,-0.0331 0.0248,-0.008 0.0599,-0.008 h 0.56638 q 0.0703,0 0.0992,0.031 0.031,0.0289 0.031,0.0992 v 0.44855 q 0.1571,-0.30179 0.3576,-0.46302 0.20051,-0.16123 0.40721,-0.16123 0.1757,0 0.33073,0.11575 0.0765,0.0579 0.0889,0.1385 0.0124,0.0786 -0.0351,0.19637 -0.0496,0.12609 -0.11369,0.16743 -0.0641,0.0393 -0.13023,0.004 -0.0599,-0.0331 -0.11989,-0.0475 -0.0599,-0.0165 -0.11989,-0.0165 -0.11989,0 -0.22944,0.0579 -0.10749,0.0579 -0.19224,0.16123 -0.0827,0.10336 -0.13229,0.24598 -0.0496,0.14263 -0.0496,0.31213 v 0.19637 h 0.59325 q 0.0351,0 0.0599,0.008 0.0248,0.008 0.0393,0.0331 0.0165,0.0227 0.0227,0.0641 0.008,0.0413 0.008,0.10749 0,0.0661 -0.008,0.10748 -0.006,0.0413 -0.0227,0.0641 -0.0145,0.0227 -0.0393,0.031 -0.0248,0.008 -0.0599,0.008 h -1.41387 q -0.0351,0 -0.0599,-0.008 -0.0248,-0.008 -0.0413,-0.031 -0.0145,-0.0227 -0.0227,-0.0641 -0.006,-0.0413 -0.006,-0.10748 0,-0.0661 0.006,-0.10749 0.008,-0.0413 0.0227,-0.0641 0.0165,-0.0248 0.0413,-0.0331 0.0248,-0.008 0.0599,-0.008 h 0.30386 z"
           style="font-style:normal;font-variant:normal;font-weight:bold;font-stretch:normal;font-family:'Courier Prime';-inkscape-font-specification:'Courier Prime';fill:#333333;fill-opacity:1;stroke-width:0.11461401"
           id="path2473"
           inkscape:connector-curvature="0" />
        <path
           d="m 311.38744,158.49467 q -0.15917,0.12402 -0.34107,0.1943 -0.17983,0.0703 -0.37827,0.0703 -0.17777,0 -0.31833,-0.0455 -0.13849,-0.0455 -0.23564,-0.13023 -0.0971,-0.0868 -0.14883,-0.2067 -0.0496,-0.12196 -0.0496,-0.27286 0,-0.14469 0.0517,-0.25838 0.0537,-0.11369 0.15296,-0.19017 0.10129,-0.0786 0.24391,-0.11782 0.1447,-0.0413 0.32867,-0.0413 0.27491,0 0.58497,0.062 v -0.0599 q 0,-0.0641 -0.0207,-0.11369 -0.0207,-0.0517 -0.0682,-0.0868 -0.0455,-0.0351 -0.12402,-0.0517 -0.0765,-0.0186 -0.18811,-0.0186 -0.12402,0 -0.27078,0.031 -0.14676,0.031 -0.28939,0.0786 -0.0331,0.0103 -0.062,0.0124 -0.0289,0 -0.0558,-0.0145 -0.0269,-0.0165 -0.0517,-0.0517 -0.0248,-0.0372 -0.0475,-0.0992 -0.0455,-0.12402 -0.031,-0.19017 0.0145,-0.0661 0.0868,-0.093 0.0971,-0.0351 0.19844,-0.062 0.10335,-0.0269 0.20257,-0.0434 0.10129,-0.0186 0.19637,-0.0269 0.0971,-0.0103 0.1819,-0.0103 0.23565,0 0.39894,0.0537 0.16537,0.0517 0.26665,0.1509 0.10336,0.0992 0.14883,0.23978 0.0455,0.14056 0.0455,0.31419 v 0.59738 q 0,0.0827 0.0351,0.13022 0.0351,0.0455 0.10128,0.0455 h 0.0641 q 0.0351,0 0.0599,0.008 0.0248,0.008 0.0393,0.0331 0.0165,0.0227 0.0227,0.0641 0.008,0.0413 0.008,0.10749 0,0.0661 -0.008,0.10748 -0.006,0.0413 -0.0227,0.0641 -0.0145,0.0227 -0.0393,0.031 -0.0248,0.008 -0.0599,0.008 h -0.23151 q -0.12402,0 -0.22324,-0.0496 -0.0992,-0.0517 -0.15296,-0.1695 z m -0.10956,-0.51677 q -0.14469,-0.0289 -0.27698,-0.0413 -0.13023,-0.0145 -0.25632,-0.0145 -0.14676,0 -0.22117,0.0517 -0.0744,0.0517 -0.0744,0.15089 0,0.0992 0.0724,0.14883 0.0744,0.0496 0.21291,0.0496 0.14883,0 0.28732,-0.0579 0.13849,-0.0599 0.25631,-0.15503 z"
           style="font-style:normal;font-variant:normal;font-weight:bold;font-stretch:normal;font-family:'Courier Prime';-inkscape-font-specification:'Courier Prime';fill:#333333;fill-opacity:1;stroke-width:0.11461401"
           id="path2475"
           inkscape:connector-curvature="0" />
        <path
           d="m 314.5583,158.29003 q 0.0351,0 0.06,0.008 0.0248,0.008 0.0393,0.031 0.0165,0.0227 0.0227,0.0641 0.008,0.0413 0.008,0.10749 0,0.0661 -0.008,0.10749 -0.006,0.0413 -0.0227,0.0661 -0.0145,0.0227 -0.0393,0.031 -0.0248,0.008 -0.06,0.008 h -0.48369 q -0.0703,0 -0.10128,-0.0289 -0.0289,-0.031 -0.0289,-0.10129 v -0.14263 q -0.10749,0.15297 -0.26665,0.23565 -0.15917,0.0827 -0.35967,0.0827 -0.20464,0 -0.37,-0.0724 -0.1633,-0.0744 -0.28112,-0.20257 -0.11576,-0.13022 -0.17777,-0.30799 -0.062,-0.17777 -0.062,-0.38654 0,-0.20877 0.062,-0.38654 0.062,-0.17777 0.17777,-0.30592 0.11782,-0.13023 0.28112,-0.20257 0.16536,-0.0744 0.37,-0.0744 0.1633,0 0.29972,0.062 0.1385,0.062 0.24392,0.1757 v -0.63252 h -0.40721 q -0.0351,0 -0.06,-0.008 -0.0248,-0.008 -0.0413,-0.031 -0.0145,-0.0227 -0.0227,-0.0641 -0.006,-0.0413 -0.006,-0.10749 0,-0.0661 0.006,-0.10748 0.008,-0.0413 0.0227,-0.0641 0.0165,-0.0248 0.0413,-0.0331 0.0248,-0.008 0.06,-0.008 h 0.79375 q 0.0703,0 0.0992,0.031 0.031,0.0289 0.031,0.0992 v 2.15801 z m -0.68212,-0.50023 q 0,-0.12609 -0.0393,-0.21911 -0.0372,-0.0951 -0.10335,-0.15709 -0.0641,-0.062 -0.1509,-0.093 -0.0847,-0.031 -0.1819,-0.031 -0.19017,0 -0.30592,0.12816 -0.11369,0.12816 -0.11369,0.37207 0,0.24391 0.11369,0.37207 0.11575,0.12816 0.30592,0.12816 0.0971,0 0.1819,-0.031 0.0868,-0.031 0.1509,-0.093 0.0661,-0.062 0.10335,-0.15503 0.0393,-0.0951 0.0393,-0.22118 z"
           style="font-style:normal;font-variant:normal;font-weight:bold;font-stretch:normal;font-family:'Courier Prime';-inkscape-font-specification:'Courier Prime';fill:#333333;fill-opacity:1;stroke-width:0.11461401"
           id="path2477"
           inkscape:connector-curvature="0" />
        <path
           d="m 316.35871,159.5344 q -0.19637,-0.11162 -0.3886,-0.27699 -0.19017,-0.1633 -0.34107,-0.38447 -0.14883,-0.21911 -0.24184,-0.49609 -0.091,-0.27699 -0.091,-0.61185 0,-0.33487 0.091,-0.61185 0.093,-0.27699 0.24184,-0.4961 0.1509,-0.22117 0.34107,-0.38447 0.19223,-0.16536 0.3886,-0.27698 0.062,-0.0351 0.12816,0.006 0.0661,0.0393 0.11989,0.11782 0.0269,0.0413 0.0455,0.0848 0.0186,0.0434 0.0248,0.0806 0.006,0.0372 -0.002,0.0682 -0.006,0.0289 -0.031,0.0434 -0.20051,0.1261 -0.35554,0.27079 -0.15503,0.14263 -0.26251,0.31212 -0.10542,0.16744 -0.16123,0.36381 -0.0558,0.1943 -0.0558,0.42168 0,0.22737 0.0558,0.42374 0.0558,0.19431 0.16123,0.36381 0.10748,0.16743 0.26251,0.31005 0.15503,0.1447 0.35554,0.27079 0.0248,0.0165 0.031,0.0455 0.008,0.0289 0.002,0.0662 -0.006,0.0372 -0.0248,0.0806 -0.0186,0.0434 -0.0455,0.0848 -0.0537,0.0786 -0.11989,0.11783 -0.0661,0.0413 -0.12816,0.006 z"
           style="font-style:normal;font-variant:normal;font-weight:bold;font-stretch:normal;font-family:'Courier Prime';-inkscape-font-specification:'Courier Prime';fill:#333333;fill-opacity:1;stroke-width:0.11461401"
           id="path2479"
           inkscape:connector-curvature="0" />
        <path
           d="m 317.51626,157.22756 q -0.0351,0 -0.0599,-0.008 -0.0248,-0.008 -0.0413,-0.031 -0.0145,-0.0227 -0.0227,-0.0641 -0.006,-0.0413 -0.006,-0.10749 0,-0.0661 0.006,-0.10749 0.008,-0.0413 0.0227,-0.0641 0.0165,-0.0248 0.0413,-0.0331 0.0248,-0.008 0.0599,-0.008 h 0.83509 q 0.0351,0 0.0599,0.008 0.0248,0.008 0.0393,0.0331 0.0165,0.0227 0.0227,0.0641 0.008,0.0413 0.008,0.10749 0,0.0662 -0.008,0.10749 -0.006,0.0413 -0.0227,0.0641 -0.0145,0.0227 -0.0393,0.031 -0.0248,0.008 -0.0599,0.008 h -0.12402 l 0.35967,0.78548 0.35967,-0.78548 h -0.11162 q -0.0351,0 -0.06,-0.008 -0.0248,-0.008 -0.0413,-0.031 -0.0145,-0.0227 -0.0227,-0.0641 -0.006,-0.0413 -0.006,-0.10749 0,-0.0661 0.006,-0.10749 0.008,-0.0413 0.0227,-0.0641 0.0165,-0.0248 0.0413,-0.0331 0.0248,-0.008 0.06,-0.008 h 0.79375 q 0.0351,0 0.0599,0.008 0.0248,0.008 0.0393,0.0331 0.0165,0.0227 0.0227,0.0641 0.008,0.0413 0.008,0.10749 0,0.0662 -0.008,0.10749 -0.006,0.0413 -0.0227,0.0641 -0.0145,0.0227 -0.0393,0.031 -0.0248,0.008 -0.0599,0.008 h -0.1323 l -0.79168,1.60404 q -0.10749,0.21704 -0.2067,0.35553 -0.0972,0.14056 -0.21291,0.22324 -0.11369,0.0827 -0.25632,0.11783 -0.14056,0.0351 -0.33486,0.0413 -0.0599,0.002 -0.10129,-0.0413 -0.0393,-0.0434 -0.0475,-0.17157 -0.004,-0.0703 0,-0.11989 0.006,-0.0475 0.0207,-0.0765 0.0145,-0.0289 0.0351,-0.0434 0.0207,-0.0124 0.0496,-0.0145 0.12196,-0.006 0.20671,-0.0372 0.0868,-0.0289 0.15709,-0.0951 0.0724,-0.0661 0.1385,-0.17363 0.0661,-0.10749 0.15089,-0.26872 l -0.63252,-1.30018 z"
           style="font-style:normal;font-variant:normal;font-weight:bold;font-stretch:normal;font-family:'Courier Prime';-inkscape-font-specification:'Courier Prime';fill:#333333;fill-opacity:1;stroke-width:0.11461401"
           id="path2481"
           inkscape:connector-curvature="0" />
        <path
           d="m 320.91657,159.23674 q -0.0227,0.0434 -0.0641,0.0641 -0.0413,0.0207 -0.11369,0.0207 -0.0868,0 -0.13229,-0.0351 -0.0434,-0.0351 -0.0331,-0.10129 l 0.1943,-1.12034 q 0.0165,-0.0827 0.10749,-0.0827 h 0.53537 q 0.0517,0 0.0682,0.0393 0.0165,0.0372 -0.0103,0.0909 z"
           style="font-style:normal;font-variant:normal;font-weight:bold;font-stretch:normal;font-family:'Courier Prime';-inkscape-font-specification:'Courier Prime';fill:#333333;fill-opacity:1;stroke-width:0.11461401"
           id="path2483"
           inkscape:connector-curvature="0" />
      </g>
      <g
         style="font-style:normal;font-weight:normal;font-size:medium;line-height:1.25;font-family:sans-serif;letter-spacing:0px;word-spacing:0px;fill:#333333;fill-opacity:1;stroke:none;stroke-width:0.11461401"
         transform="matrix(1.8126005,0,0,1.8126005,-271.44131,-147.97254)"
         id="g2491">
        <path
           d="m 325.82997,157.74433 -0.5085,-0.51677 h -0.10748 q -0.0351,0 -0.06,-0.008 -0.0248,-0.008 -0.0413,-0.031 -0.0145,-0.0227 -0.0227,-0.0641 -0.006,-0.0413 -0.006,-0.10749 0,-0.0661 0.006,-0.10749 0.008,-0.0413 0.0227,-0.0641 0.0165,-0.0248 0.0413,-0.0331 0.0248,-0.008 0.06,-0.008 h 0.77307 q 0.0351,0 0.06,0.008 0.0248,0.008 0.0393,0.0331 0.0165,0.0227 0.0227,0.0641 0.008,0.0413 0.008,0.10749 0,0.0662 -0.008,0.10749 -0.006,0.0413 -0.0227,0.0641 -0.0145,0.0227 -0.0393,0.031 -0.0248,0.008 -0.06,0.008 h -0.0269 l 0.26459,0.27079 0.25011,-0.27079 h -0.0455 q -0.0351,0 -0.0599,-0.008 -0.0248,-0.008 -0.0413,-0.031 -0.0145,-0.0227 -0.0227,-0.0641 -0.006,-0.0413 -0.006,-0.10749 0,-0.0661 0.006,-0.10749 0.008,-0.0413 0.0227,-0.0641 0.0165,-0.0248 0.0413,-0.0331 0.0248,-0.008 0.0599,-0.008 h 0.73174 q 0.0351,0 0.0599,0.008 0.0248,0.008 0.0393,0.0331 0.0165,0.0227 0.0227,0.0641 0.008,0.0413 0.008,0.10749 0,0.0662 -0.008,0.10749 -0.006,0.0413 -0.0227,0.0641 -0.0145,0.0227 -0.0393,0.031 -0.0248,0.008 -0.0599,0.008 h -0.12195 l -0.49816,0.51883 0.53536,0.54364 h 0.10542 q 0.0351,0 0.0599,0.008 0.0248,0.008 0.0393,0.0331 0.0165,0.0227 0.0227,0.0641 0.008,0.0413 0.008,0.10749 0,0.0661 -0.008,0.10748 -0.006,0.0413 -0.0227,0.0641 -0.0145,0.0227 -0.0393,0.031 -0.0248,0.008 -0.0599,0.008 h -0.79375 q -0.0351,0 -0.0599,-0.008 -0.0248,-0.008 -0.0413,-0.031 -0.0145,-0.0227 -0.0227,-0.0641 -0.006,-0.0413 -0.006,-0.10748 0,-0.0661 0.006,-0.10749 0.008,-0.0413 0.0227,-0.0641 0.0165,-0.0248 0.0413,-0.0331 0.0248,-0.008 0.0599,-0.008 h 0.0289 l -0.27078,-0.27699 -0.25632,0.27699 h 0.0351 q 0.0351,0 0.06,0.008 0.0248,0.008 0.0393,0.0331 0.0165,0.0227 0.0227,0.0641 0.008,0.0413 0.008,0.10749 0,0.0661 -0.008,0.10748 -0.006,0.0413 -0.0227,0.0641 -0.0145,0.0227 -0.0393,0.031 -0.0248,0.008 -0.06,0.008 h -0.73174 q -0.0351,0 -0.0599,-0.008 -0.0248,-0.008 -0.0413,-0.031 -0.0145,-0.0227 -0.0227,-0.0641 -0.006,-0.0413 -0.006,-0.10748 0,-0.0661 0.006,-0.10749 0.008,-0.0413 0.0227,-0.0641 0.0165,-0.0248 0.0413,-0.0331 0.0248,-0.008 0.0599,-0.008 h 0.11163 z"
           style="font-style:normal;font-variant:normal;font-weight:bold;font-stretch:normal;font-family:'Courier Prime';-inkscape-font-specification:'Courier Prime';fill:#333333;fill-opacity:1;stroke-width:0.11461401"
           id="path2487"
           inkscape:connector-curvature="0" />
        <path
           d="m 328.40139,159.5344 q -0.062,0.0351 -0.12816,-0.006 -0.0661,-0.0393 -0.11989,-0.11783 -0.0289,-0.0413 -0.0475,-0.0848 -0.0186,-0.0434 -0.0248,-0.0806 -0.006,-0.0372 0.002,-0.0662 0.008,-0.0289 0.0331,-0.0455 0.20051,-0.12609 0.35554,-0.27079 0.15503,-0.14262 0.26045,-0.31005 0.10748,-0.1695 0.16329,-0.36381 0.0558,-0.19637 0.0558,-0.42374 0,-0.22738 -0.0558,-0.42168 -0.0558,-0.19637 -0.16329,-0.36381 -0.10542,-0.16949 -0.26045,-0.31212 -0.15503,-0.14469 -0.35554,-0.27079 -0.0248,-0.0145 -0.0331,-0.0434 -0.008,-0.031 -0.002,-0.0682 0.006,-0.0372 0.0248,-0.0806 0.0186,-0.0434 0.0475,-0.0848 0.0537,-0.0786 0.11989,-0.11782 0.0661,-0.0413 0.12816,-0.006 0.19637,0.11162 0.38654,0.27698 0.19223,0.1633 0.34106,0.38447 0.1509,0.21911 0.24185,0.4961 0.093,0.27698 0.093,0.61185 0,0.33486 -0.093,0.61185 -0.0909,0.27698 -0.24185,0.49609 -0.14883,0.22117 -0.34106,0.38447 -0.19017,0.16537 -0.38654,0.27699 z"
           style="font-style:normal;font-variant:normal;font-weight:bold;font-stretch:normal;font-family:'Courier Prime';-inkscape-font-specification:'Courier Prime';fill:#333333;fill-opacity:1;stroke-width:0.11461401"
           id="path2489"
           inkscape:connector-curvature="0" />
      </g>
    </g>
  </g>
</svg>
