<?xml version="1.0" encoding="UTF-8" standalone="no"?>
<!-- Created with Inkscape (http://www.inkscape.org/) -->

<svg
   xmlns:dc="http://purl.org/dc/elements/1.1/"
   xmlns:cc="http://creativecommons.org/ns#"
   xmlns:rdf="http://www.w3.org/1999/02/22-rdf-syntax-ns#"
   xmlns:svg="http://www.w3.org/2000/svg"
   xmlns="http://www.w3.org/2000/svg"
   xmlns:sodipodi="http://sodipodi.sourceforge.net/DTD/sodipodi-0.dtd"
   xmlns:inkscape="http://www.inkscape.org/namespaces/inkscape"
   width="58.475182mm"
   height="8.3420601mm"
   viewBox="0 0 58.475182 8.3420601"
   version="1.1"
   id="svg1191"
   inkscape:version="0.92.3 (unknown)"
   sodipodi:docname="autodiff.github.io.svg">
  <defs
     id="defs1185">
    <inkscape:path-effect
       effect="powerstroke"
       id="path-effect1772"
       is_visible="true"
       offset_points="0,0.13229166"
       sort_points="true"
       interpolator_type="CubicBezierJohan"
       interpolator_beta="0.2"
       start_linecap_type="zerowidth"
       linejoin_type="extrp_arc"
       miter_limit="4"
       end_linecap_type="zerowidth" />
    <inkscape:path-effect
       effect="powerstroke"
       id="path-effect1772-9"
       is_visible="true"
       offset_points="0,0.13229166"
       sort_points="true"
       interpolator_type="CubicBezierJohan"
       interpolator_beta="0.2"
       start_linecap_type="zerowidth"
       linejoin_type="extrp_arc"
       miter_limit="4"
       end_linecap_type="zerowidth" />
  </defs>
  <sodipodi:namedview
     id="base"
     pagecolor="#ffffff"
     bordercolor="#666666"
     borderopacity="1.0"
     inkscape:pageopacity="0.0"
     inkscape:pageshadow="2"
     inkscape:zoom="3.6203867"
     inkscape:cx="127.81588"
     inkscape:cy="119.34483"
     inkscape:document-units="mm"
     inkscape:current-layer="layer1"
     showgrid="false"
     inkscape:window-width="1914"
     inkscape:window-height="2123"
     inkscape:window-x="3840"
     inkscape:window-y="0"
     inkscape:window-maximized="0" />
  <metadata
     id="metadata1188">
    <rdf:RDF>
      <cc:Work
         rdf:about="">
        <dc:format>image/svg+xml</dc:format>
        <dc:type
           rdf:resource="http://purl.org/dc/dcmitype/StillImage" />
        <dc:title></dc:title>
      </cc:Work>
    </rdf:RDF>
  </metadata>
  <g
     inkscape:label="Layer 1"
     inkscape:groupmode="layer"
     id="layer1"
     transform="translate(-379.94968,-121.35648)">
    <text
       xml:space="preserve"
       style="font-style:normal;font-variant:normal;font-weight:normal;font-stretch:normal;font-size:7.25800943px;line-height:1.25;font-family:sans-serif;-inkscape-font-specification:'Courier Prime Sans';letter-spacing:0px;word-spacing:0px;fill:#ff8282;fill-opacity:1;stroke:none;stroke-width:1.64464307"
       x="387.7832"
       y="89.683945"
       id="text1286"><tspan
         sodipodi:role="line"
         id="tspan1284"
         x="387.7832"
         y="89.683945"
         style="font-style:normal;font-variant:normal;font-weight:normal;font-stretch:normal;font-family:Comfortaa;-inkscape-font-specification:Comfortaa;fill:#ff8282;fill-opacity:1;stroke-width:1.64464307">autodiff<tspan
   style="fill:#808080"
   id="tspan1748">.</tspan><tspan
   style="fill:#333333"
   id="tspan1744">github</tspan><tspan
   style="fill:#808080"
   id="tspan1750">.</tspan><tspan
   style="fill:#333333"
   id="tspan1746">io</tspan></tspan></text>
    <path
       style="fill:#000000;fill-rule:nonzero;stroke:none;stroke-width:0.26458329px;stroke-linecap:butt;stroke-linejoin:miter;stroke-opacity:1"
       d="m 446.54181,92.216245 c 0,0 0,-0.132292 0,-0.132292 -11.695,0 -46.78,0.132292 -58.475,0.132292 11.695,0 46.78,0.132292 58.475,0.132292 0,0 0,-0.132292 0,-0.132292 z"
       id="path1770"
       inkscape:connector-curvature="0"
       inkscape:path-effect="#path-effect1772"
       inkscape:original-d="m 446.54181,92.216245 h -58.475" />
    <g
       aria-label="autodiff.github.io"
       style="font-style:normal;font-variant:normal;font-weight:normal;font-stretch:normal;font-size:7.25800943px;line-height:1.25;font-family:sans-serif;-inkscape-font-specification:'Courier Prime Sans';letter-spacing:0px;word-spacing:0px;fill:#ff8282;fill-opacity:1;stroke:none;stroke-width:1.64464307"
       id="text1286-8">
      <path
         d="m 381.9343,123.63176 q -0.5883,0 -1.00294,0.41464 -0.41464,0.41464 -0.41464,1.00294 0,0.58829 0.41464,1.00294 0.41464,0.41464 1.00294,0.41464 0.58829,0 1.00293,-0.41464 0.41465,-0.41465 0.41465,-1.00294 0,-0.5883 -0.41465,-1.00294 -0.41464,-0.41464 -1.00293,-0.41464 z m 1.41758,2.80681 q -0.59539,0.59538 -1.41758,0.59538 -0.8222,0 -1.40341,-0.58121 -0.58121,-0.5812 -0.58121,-1.4034 0,-0.8222 0.58121,-1.40341 0.58121,-0.5812 1.40341,-0.5812 0.82219,0 1.4034,0.5812 0.58121,0.58121 0.58121,1.40341 v 1.70109 q 0,0.11696 -0.0851,0.20201 -0.0815,0.0815 -0.19846,0.0815 -0.11695,0 -0.202,-0.0815 -0.0815,-0.085 -0.0815,-0.20201 z"
         style="font-style:normal;font-variant:normal;font-weight:normal;font-stretch:normal;font-family:Comfortaa;-inkscape-font-specification:Comfortaa;fill:#ff8282;fill-opacity:1;stroke-width:1.64464307"
         id="path1868"
         inkscape:connector-curvature="0" />
      <path
         d="m 388.17165,126.75043 q 0,0.11696 -0.0851,0.20201 -0.0815,0.0815 -0.19846,0.0815 -0.11695,0 -0.202,-0.0815 -0.0815,-0.085 -0.0815,-0.20201 v -0.23035 q -0.5316,0.51387 -1.27583,0.51387 -0.76195,0 -1.30417,-0.53868 -0.53868,-0.54222 -0.53868,-1.30417 v -1.84286 q 0,-0.11695 0.0815,-0.19846 0.0851,-0.0851 0.20201,-0.0851 0.11695,0 0.19846,0.0851 0.0851,0.0815 0.0851,0.19846 v 1.84286 q 0,0.52805 0.37212,0.9037 0.37566,0.37212 0.9037,0.37212 0.52805,0 0.90017,-0.37212 0.37566,-0.37565 0.37566,-0.9037 v -1.84286 q 0,-0.11695 0.0815,-0.19846 0.0851,-0.0851 0.202,-0.0851 0.11695,0 0.19846,0.0851 0.0851,0.0815 0.0851,0.19846 z"
         style="font-style:normal;font-variant:normal;font-weight:normal;font-stretch:normal;font-family:Comfortaa;-inkscape-font-specification:Comfortaa;fill:#ff8282;fill-opacity:1;stroke-width:1.64464307"
         id="path1870"
         inkscape:connector-curvature="0" />
      <path
         d="m 390.72329,126.46692 q 0.11695,0 0.19846,0.085 0.0851,0.0815 0.0851,0.19846 0,0.11696 -0.0851,0.20201 -0.0815,0.0815 -0.19846,0.0815 -1.41758,0 -1.41758,-1.41758 v -1.98461 h -0.28351 q -0.11695,0 -0.20201,-0.0815 -0.0815,-0.0851 -0.0815,-0.20201 0,-0.11695 0.0815,-0.19846 0.0851,-0.0851 0.20201,-0.0851 h 0.28351 v -1.41758 q 0,-0.11695 0.0815,-0.19846 0.0851,-0.0851 0.20201,-0.0851 0.11695,0 0.19846,0.0851 0.0851,0.0815 0.0851,0.19846 v 1.41758 h 0.57058 q 0.11695,0 0.19846,0.0851 0.0851,0.0815 0.0851,0.19846 0,0.11695 -0.0851,0.20201 -0.0815,0.0815 -0.19846,0.0815 h -0.57058 v 1.98461 q 0,0.85055 0.85055,0.85055 z"
         style="font-style:normal;font-variant:normal;font-weight:normal;font-stretch:normal;font-family:Comfortaa;-inkscape-font-specification:Comfortaa;fill:#ff8282;fill-opacity:1;stroke-width:1.64464307"
         id="path1872"
         inkscape:connector-curvature="0" />
      <path
         d="m 395.33043,125.04934 q 0,0.8222 -0.58121,1.4034 -0.58121,0.58121 -1.40341,0.58121 -0.82219,0 -1.4034,-0.58121 -0.58121,-0.5812 -0.58121,-1.4034 0,-0.8222 0.58121,-1.40341 0.58121,-0.5812 1.4034,-0.5812 0.8222,0 1.40341,0.5812 0.58121,0.58121 0.58121,1.40341 z m -1.98462,-1.41758 q -0.58829,0 -1.00293,0.41464 -0.41465,0.41464 -0.41465,1.00294 0,0.58829 0.41465,1.00294 0.41464,0.41464 1.00293,0.41464 0.5883,0 1.00294,-0.41464 0.41464,-0.41465 0.41464,-1.00294 0,-0.5883 -0.41464,-1.00294 -0.41464,-0.41464 -1.00294,-0.41464 z"
         style="font-style:normal;font-variant:normal;font-weight:normal;font-stretch:normal;font-family:Comfortaa;-inkscape-font-specification:Comfortaa;fill:#ff8282;fill-opacity:1;stroke-width:1.64464307"
         id="path1874"
         inkscape:connector-curvature="0" />
      <path
         d="m 399.29965,125.04934 q 0,-0.5883 -0.41464,-1.00294 -0.41464,-0.41464 -1.00294,-0.41464 -0.58829,0 -1.00294,0.41464 -0.41464,0.41464 -0.41464,1.00294 0,0.58829 0.41464,1.00294 0.41465,0.41464 1.00294,0.41464 0.5883,0 1.00294,-0.41464 0.41464,-0.41465 0.41464,-1.00294 z m 0,-3.40928 q 0,-0.11695 0.0815,-0.19846 0.0851,-0.0851 0.20201,-0.0851 0.11695,0 0.19846,0.0851 0.085,0.0815 0.085,0.19846 v 3.40928 q 0,0.8222 -0.5812,1.4034 -0.58121,0.58121 -1.40341,0.58121 -0.8222,0 -1.4034,-0.58121 -0.58121,-0.5812 -0.58121,-1.4034 0,-0.8222 0.58121,-1.40341 0.5812,-0.5812 1.4034,-0.5812 0.8222,0 1.40341,0.5812 0.007,0.007 0.0142,0.0142 z"
         style="font-style:normal;font-variant:normal;font-weight:normal;font-stretch:normal;font-family:Comfortaa;-inkscape-font-specification:Comfortaa;fill:#ff8282;fill-opacity:1;stroke-width:1.64464307"
         id="path1876"
         inkscape:connector-curvature="0" />
      <path
         d="m 401.35514,122.21418 q 0,0.1453 -0.10632,0.25162 -0.10277,0.10277 -0.24807,0.10277 -0.14531,0 -0.25162,-0.10277 -0.10278,-0.10632 -0.10278,-0.25162 0,-0.1453 0.10278,-0.24808 0.10631,-0.10632 0.25162,-0.10632 0.1453,0 0.24807,0.10632 0.10632,0.10278 0.10632,0.24808 z m -0.63791,1.13406 q 0,-0.11695 0.0815,-0.19846 0.0851,-0.0851 0.20201,-0.0851 0.11695,0 0.19846,0.0851 0.0851,0.0815 0.0851,0.19846 v 3.40219 q 0,0.11696 -0.0851,0.20201 -0.0815,0.0815 -0.19846,0.0815 -0.11695,0 -0.20201,-0.0815 -0.0815,-0.085 -0.0815,-0.20201 z"
         style="font-style:normal;font-variant:normal;font-weight:normal;font-stretch:normal;font-family:Comfortaa;-inkscape-font-specification:Comfortaa;fill:#ff8282;fill-opacity:1;stroke-width:1.64464307"
         id="path1878"
         inkscape:connector-curvature="0" />
      <path
         d="m 404.40294,121.36363 q 0.11695,0 0.19846,0.0851 0.085,0.0815 0.085,0.19846 0,0.11695 -0.085,0.202 -0.0815,0.0815 -0.19846,0.0815 -1.13407,0 -1.13407,1.13407 v 0.21263 h 0.8541 q 0.11695,0 0.19846,0.0851 0.085,0.0815 0.085,0.19846 0,0.11695 -0.085,0.20201 -0.0815,0.0815 -0.19846,0.0815 h -0.8541 v 2.90603 q 0,0.11696 -0.085,0.20201 -0.0815,0.0815 -0.19846,0.0815 -0.11695,0 -0.20201,-0.0815 -0.0815,-0.085 -0.0815,-0.20201 v -2.90603 h -0.28351 q -0.11695,0 -0.20201,-0.0815 -0.0815,-0.0851 -0.0815,-0.20201 0,-0.11695 0.0815,-0.19846 0.0851,-0.0851 0.20201,-0.0851 h 0.28351 v -0.21263 q 0,-1.7011 1.7011,-1.7011 z"
         style="font-style:normal;font-variant:normal;font-weight:normal;font-stretch:normal;font-family:Comfortaa;-inkscape-font-specification:Comfortaa;fill:#ff8282;fill-opacity:1;stroke-width:1.64464307"
         id="path1880"
         inkscape:connector-curvature="0" />
      <path
         d="m 407.2381,121.36363 q 0.11695,0 0.19846,0.0851 0.0851,0.0815 0.0851,0.19846 0,0.11695 -0.0851,0.202 -0.0815,0.0815 -0.19846,0.0815 -1.13407,0 -1.13407,1.13407 v 0.21263 h 0.8541 q 0.11695,0 0.19846,0.0851 0.0851,0.0815 0.0851,0.19846 0,0.11695 -0.0851,0.20201 -0.0815,0.0815 -0.19846,0.0815 h -0.8541 v 2.90603 q 0,0.11696 -0.0851,0.20201 -0.0815,0.0815 -0.19846,0.0815 -0.11695,0 -0.20201,-0.0815 -0.0815,-0.085 -0.0815,-0.20201 v -2.90603 h -0.28351 q -0.11695,0 -0.20201,-0.0815 -0.0815,-0.0851 -0.0815,-0.20201 0,-0.11695 0.0815,-0.19846 0.0851,-0.0851 0.20201,-0.0851 h 0.28351 v -0.21263 q 0,-1.7011 1.7011,-1.7011 z"
         style="font-style:normal;font-variant:normal;font-weight:normal;font-stretch:normal;font-family:Comfortaa;-inkscape-font-specification:Comfortaa;fill:#ff8282;fill-opacity:1;stroke-width:1.64464307"
         id="path1882"
         inkscape:connector-curvature="0" />
      <path
         d="m 408.65568,126.60868 q 0,0.17719 -0.12404,0.30123 -0.12404,0.12404 -0.30124,0.12404 -0.17719,0 -0.30123,-0.12404 -0.12404,-0.12404 -0.12404,-0.30123 0,-0.1772 0.12404,-0.30124 0.12404,-0.12404 0.30123,-0.12404 0.1772,0 0.30124,0.12404 0.12404,0.12404 0.12404,0.30124 z"
         style="fill:#808080;stroke-width:1.64464307"
         id="path1884"
         inkscape:connector-curvature="0" />
      <path
         d="m 411.20732,123.63176 q -0.58829,0 -1.00294,0.41464 -0.41464,0.41464 -0.41464,1.00294 0,0.58829 0.41464,1.00294 0.41465,0.41464 1.00294,0.41464 0.5883,0 1.00294,-0.41464 0.41464,-0.41465 0.41464,-1.00294 0,-0.5883 -0.41464,-1.00294 -0.41464,-0.41464 -1.00294,-0.41464 z m 1.41758,2.80681 q -0.007,0.007 -0.0142,0.0142 -0.58121,0.58121 -1.40341,0.58121 -0.82219,0 -1.4034,-0.58121 -0.58121,-0.5812 -0.58121,-1.4034 0,-0.8222 0.58121,-1.40341 0.58121,-0.5812 1.4034,-0.5812 0.8222,0 1.40341,0.5812 0.5812,0.58121 0.5812,1.40341 v 1.98461 q 0,0.62019 -0.44653,1.07736 -0.62374,0.62374 -1.50618,0.62374 -0.88245,0 -1.50264,-0.62374 -0.23035,-0.22681 -0.37566,-0.49261 -0.0425,-0.0638 -0.0425,-0.14884 0,-0.11695 0.0815,-0.20201 0.0851,-0.0815 0.202,-0.0815 0.11695,0 0.20201,0.0815 0.0354,0.039 0.0602,0.0851 0.10632,0.19137 0.27289,0.35794 0.45717,0.45716 1.10217,0.45716 0.645,0 1.10217,-0.45716 0.28351,-0.34022 0.28351,-0.6769 z"
         style="fill:#333333;stroke-width:1.64464307"
         id="path1886"
         inkscape:connector-curvature="0" />
      <path
         d="m 414.68039,122.21418 q 0,0.1453 -0.10632,0.25162 -0.10277,0.10277 -0.24807,0.10277 -0.14531,0 -0.25162,-0.10277 -0.10278,-0.10632 -0.10278,-0.25162 0,-0.1453 0.10278,-0.24808 0.10631,-0.10632 0.25162,-0.10632 0.1453,0 0.24807,0.10632 0.10632,0.10278 0.10632,0.24808 z m -0.63791,1.13406 q 0,-0.11695 0.0815,-0.19846 0.0851,-0.0851 0.20201,-0.0851 0.11695,0 0.19846,0.0851 0.0851,0.0815 0.0851,0.19846 v 3.40219 q 0,0.11696 -0.0851,0.20201 -0.0815,0.0815 -0.19846,0.0815 -0.11695,0 -0.20201,-0.0815 -0.0815,-0.085 -0.0815,-0.20201 z"
         style="fill:#333333;stroke-width:1.64464307"
         id="path1888"
         inkscape:connector-curvature="0" />
      <path
         d="m 417.44468,126.46692 q 0.11695,0 0.19846,0.085 0.085,0.0815 0.085,0.19846 0,0.11696 -0.085,0.20201 -0.0815,0.0815 -0.19846,0.0815 -1.41758,0 -1.41758,-1.41758 v -1.98461 h -0.28352 q -0.11695,0 -0.20201,-0.0815 -0.0815,-0.0851 -0.0815,-0.20201 0,-0.11695 0.0815,-0.19846 0.0851,-0.0851 0.20201,-0.0851 h 0.28352 v -1.41758 q 0,-0.11695 0.0815,-0.19846 0.0851,-0.0851 0.202,-0.0851 0.11695,0 0.19846,0.0851 0.0851,0.0815 0.0851,0.19846 v 1.41758 h 0.57057 q 0.11695,0 0.19847,0.0851 0.085,0.0815 0.085,0.19846 0,0.11695 -0.085,0.20201 -0.0815,0.0815 -0.19847,0.0815 h -0.57057 v 1.98461 q 0,0.85055 0.85055,0.85055 z"
         style="fill:#333333;stroke-width:1.64464307"
         id="path1890"
         inkscape:connector-curvature="0" />
      <path
         d="m 418.29522,121.64715 q 0,-0.11695 0.0815,-0.19846 0.0851,-0.0851 0.20201,-0.0851 0.11695,0 0.19846,0.0851 0.0851,0.0815 0.0851,0.19846 v 1.93145 q 0.53159,-0.51387 1.27582,-0.51387 0.76195,0 1.30063,0.54222 0.54222,0.53868 0.54222,1.30063 v 1.84285 q 0,0.11696 -0.0851,0.20201 -0.0815,0.0815 -0.19846,0.0815 -0.11696,0 -0.20201,-0.0815 -0.0815,-0.085 -0.0815,-0.20201 v -1.84285 q 0,-0.52805 -0.37566,-0.90016 -0.37211,-0.37566 -0.90016,-0.37566 -0.52805,0 -0.90371,0.37566 -0.37211,0.37211 -0.37211,0.90016 v 1.84285 q 0,0.11696 -0.0851,0.20201 -0.0815,0.0815 -0.19846,0.0815 -0.11695,0 -0.20201,-0.0815 -0.0815,-0.085 -0.0815,-0.20201 z"
         style="fill:#333333;stroke-width:1.64464307"
         id="path1892"
         inkscape:connector-curvature="0" />
      <path
         d="m 426.23367,126.75043 q 0,0.11696 -0.0851,0.20201 -0.0815,0.0815 -0.19847,0.0815 -0.11695,0 -0.202,-0.0815 -0.0815,-0.085 -0.0815,-0.20201 v -0.23035 q -0.53159,0.51387 -1.27582,0.51387 -0.76195,0 -1.30418,-0.53868 -0.53868,-0.54222 -0.53868,-1.30417 v -1.84286 q 0,-0.11695 0.0815,-0.19846 0.0851,-0.0851 0.20201,-0.0851 0.11695,0 0.19846,0.0851 0.085,0.0815 0.085,0.19846 v 1.84286 q 0,0.52805 0.37212,0.9037 0.37566,0.37212 0.90371,0.37212 0.52804,0 0.90016,-0.37212 0.37566,-0.37565 0.37566,-0.9037 v -1.84286 q 0,-0.11695 0.0815,-0.19846 0.085,-0.0851 0.202,-0.0851 0.11695,0 0.19847,0.0851 0.0851,0.0815 0.0851,0.19846 z"
         style="fill:#333333;stroke-width:1.64464307"
         id="path1894"
         inkscape:connector-curvature="0" />
      <path
         d="m 428.78531,126.46692 q 0.5883,0 1.00294,-0.41464 0.41464,-0.41465 0.41464,-1.00294 0,-0.5883 -0.41464,-1.00294 -0.41464,-0.41464 -1.00294,-0.41464 -0.58829,0 -1.00293,0.41464 -0.41465,0.41464 -0.41465,1.00294 0,0.58829 0.41465,1.00294 0.41464,0.41464 1.00293,0.41464 z m -1.41758,-2.80681 q 0.007,-0.007 0.0142,-0.0142 0.58121,-0.5812 1.4034,-0.5812 0.8222,0 1.40341,0.5812 0.58121,0.58121 0.58121,1.40341 0,0.8222 -0.58121,1.4034 -0.58121,0.58121 -1.40341,0.58121 -0.82219,0 -1.4034,-0.58121 -0.58121,-0.5812 -0.58121,-1.4034 v -3.40928 q 0,-0.11695 0.0815,-0.19846 0.0851,-0.0851 0.20201,-0.0851 0.11695,0 0.19846,0.0851 0.085,0.0815 0.085,0.19846 z"
         style="fill:#333333;stroke-width:1.64464307"
         id="path1896"
         inkscape:connector-curvature="0" />
      <path
         d="m 432.1875,126.60868 q 0,0.17719 -0.12403,0.30123 -0.12404,0.12404 -0.30124,0.12404 -0.1772,0 -0.30124,-0.12404 -0.12403,-0.12404 -0.12403,-0.30123 0,-0.1772 0.12403,-0.30124 0.12404,-0.12404 0.30124,-0.12404 0.1772,0 0.30124,0.12404 0.12403,0.12404 0.12403,0.30124 z"
         style="fill:#808080;stroke-width:1.64464307"
         id="path1898"
         inkscape:connector-curvature="0" />
      <path
         d="m 433.67597,122.21418 q 0,0.1453 -0.10632,0.25162 -0.10278,0.10277 -0.24808,0.10277 -0.1453,0 -0.25162,-0.10277 -0.10277,-0.10632 -0.10277,-0.25162 0,-0.1453 0.10277,-0.24808 0.10632,-0.10632 0.25162,-0.10632 0.1453,0 0.24808,0.10632 0.10632,0.10278 0.10632,0.24808 z m -0.63791,1.13406 q 0,-0.11695 0.0815,-0.19846 0.085,-0.0851 0.202,-0.0851 0.11695,0 0.19846,0.0851 0.0851,0.0815 0.0851,0.19846 v 3.40219 q 0,0.11696 -0.0851,0.20201 -0.0815,0.0815 -0.19846,0.0815 -0.11695,0 -0.202,-0.0815 -0.0815,-0.085 -0.0815,-0.20201 z"
         style="fill:#333333;stroke-width:1.64464307"
         id="path1900"
         inkscape:connector-curvature="0" />
      <path
         d="m 438.42486,125.04934 q 0,0.8222 -0.58121,1.4034 -0.58121,0.58121 -1.4034,0.58121 -0.8222,0 -1.40341,-0.58121 -0.5812,-0.5812 -0.5812,-1.4034 0,-0.8222 0.5812,-1.40341 0.58121,-0.5812 1.40341,-0.5812 0.82219,0 1.4034,0.5812 0.58121,0.58121 0.58121,1.40341 z m -1.98461,-1.41758 q -0.5883,0 -1.00294,0.41464 -0.41464,0.41464 -0.41464,1.00294 0,0.58829 0.41464,1.00294 0.41464,0.41464 1.00294,0.41464 0.58829,0 1.00293,-0.41464 0.41465,-0.41465 0.41465,-1.00294 0,-0.5883 -0.41465,-1.00294 -0.41464,-0.41464 -1.00293,-0.41464 z"
         style="fill:#333333;stroke-width:1.64464307"
         id="path1902"
         inkscape:connector-curvature="0" />
    </g>
    <path
       style="fill:#000000;fill-rule:nonzero;stroke:none;stroke-width:0.26458329px;stroke-linecap:butt;stroke-linejoin:miter;stroke-opacity:1"
       d="m 438.42478,129.56625 c 0,0 0,-0.13229 0,-0.13229 -11.695,0 -46.78,0.13229 -58.475,0.13229 11.695,0 46.78,0.13229 58.475,0.13229 0,0 0,-0.13229 0,-0.13229 z"
       id="path1770-2"
       inkscape:connector-curvature="0" />
  </g>
</svg>
